<?xml version="1.0" encoding="UTF-8" standalone="no"?><svg xmlns="http://www.w3.org/2000/svg" xmlns:xlink="http://www.w3.org/1999/xlink" contentScriptType="application/ecmascript" contentStyleType="text/css" height="414px" preserveAspectRatio="none" style="width:560px;height:414px;" version="1.1" viewBox="0 0 560 414" width="560px" zoomAndPan="magnify"><defs><filter height="300%" id="fzrmowt5big1v" width="300%" x="-1" y="-1"><feGaussianBlur result="blurOut" stdDeviation="2.0"/><feColorMatrix in="blurOut" result="blurOut2" type="matrix" values="0 0 0 0 0 0 0 0 0 0 0 0 0 0 0 0 0 0 .4 0"/><feOffset dx="4.0" dy="4.0" in="blurOut2" result="blurOut3"/><feBlend in="SourceGraphic" in2="blurOut3" mode="normal"/></filter></defs><g><text fill="#000000" font-family="sans-serif" font-size="18" lengthAdjust="spacing" textLength="126" x="210.5" y="20.6279">装饰器模式结构</text><!--MD5=[4e13963c9dc916a21a8436ef39422b32]
class Component--><rect codeLine="2" fill="#FEFECE" filter="url(#fzrmowt5big1v)" height="63.0229" id="Component" style="stroke:#A80036;stroke-width:1.5;" width="102" x="234.5" y="337.583"/><ellipse cx="251.75" cy="353.583" fill="#ADD1B2" rx="11" ry="11" style="stroke:#A80036;stroke-width:1.0;"/><path d="M250.3281,358.9424 Q248.4688,358.9424 247.375,357.5518 Q246.2813,356.1611 246.2813,353.1768 Q246.2813,350.6455 247.4453,348.9893 Q248.6094,347.333 250.5938,347.333 Q252.0625,347.333 252.5313,347.458 Q253,347.6611 253,347.6611 Q253,347.6611 253,347.5908 Q253,347.5205 253.6094,346.5986 L254.6563,350.2549 L253.3281,350.6611 Q252.8594,349.1143 252.1953,348.4502 Q251.5313,347.7861 250.4688,347.7861 Q250.0781,347.7861 249.3125,349.3174 Q248.5469,350.8486 248.5469,353.0986 Q248.5469,355.5674 249.2109,356.958 Q249.875,358.3486 250.4063,358.3486 Q251.4688,358.3486 252.2266,357.583 Q252.9844,356.8174 253.3281,355.1611 L254.6563,355.7549 Q254.3281,357.1611 253.4297,358.0518 Q252.5313,358.9424 250.3281,358.9424 Z " fill="#000000"/><text fill="#000000" font-family="sans-serif" font-size="12" lengthAdjust="spacing" textLength="65" x="266.25" y="359.1406">Component</text><line style="stroke:#A80036;stroke-width:1.5;" x1="235.5" x2="335.5" y1="369.583" y2="369.583"/><line style="stroke:#A80036;stroke-width:1.5;" x1="235.5" x2="335.5" y1="377.583" y2="377.583"/><ellipse cx="245.5" cy="388.583" fill="#84BE84" rx="3" ry="3" style="stroke:#038048;stroke-width:1.0;"/><text fill="#000000" font-family="sans-serif" font-size="11" lengthAdjust="spacing" textLength="76" x="254.5" y="394.189">operation() void</text><!--MD5=[b5bc18f2ff550a3ef28474c0b2646ebb]
class ConcreteComponent--><rect codeLine="5" fill="#FEFECE" filter="url(#fzrmowt5big1v)" height="63.0229" id="ConcreteComponent" style="stroke:#A80036;stroke-width:1.5;" width="147" x="7" y="199.583"/><ellipse cx="22" cy="215.583" fill="#ADD1B2" rx="11" ry="11" style="stroke:#A80036;stroke-width:1.0;"/><path d="M20.5781,220.9424 Q18.7188,220.9424 17.625,219.5518 Q16.5313,218.1611 16.5313,215.1768 Q16.5313,212.6455 17.6953,210.9893 Q18.8594,209.333 20.8438,209.333 Q22.3125,209.333 22.7813,209.458 Q23.25,209.6611 23.25,209.6611 Q23.25,209.6611 23.25,209.5908 Q23.25,209.5205 23.8594,208.5986 L24.9063,212.2549 L23.5781,212.6611 Q23.1094,211.1143 22.4453,210.4502 Q21.7813,209.7861 20.7188,209.7861 Q20.3281,209.7861 19.5625,211.3174 Q18.7969,212.8486 18.7969,215.0986 Q18.7969,217.5674 19.4609,218.958 Q20.125,220.3486 20.6563,220.3486 Q21.7188,220.3486 22.4766,219.583 Q23.2344,218.8174 23.5781,217.1611 L24.9063,217.7549 Q24.5781,219.1611 23.6797,220.0518 Q22.7813,220.9424 20.5781,220.9424 Z " fill="#000000"/><text fill="#000000" font-family="sans-serif" font-size="12" lengthAdjust="spacing" textLength="115" x="36" y="221.1406">ConcreteComponent</text><line style="stroke:#A80036;stroke-width:1.5;" x1="8" x2="153" y1="231.583" y2="231.583"/><line style="stroke:#A80036;stroke-width:1.5;" x1="8" x2="153" y1="239.583" y2="239.583"/><ellipse cx="18" cy="250.583" fill="#84BE84" rx="3" ry="3" style="stroke:#038048;stroke-width:1.0;"/><text fill="#000000" font-family="sans-serif" font-size="11" lengthAdjust="spacing" textLength="76" x="27" y="256.189">operation() void</text><!--MD5=[321dae1e4c20a532a67879525d68ecc8]
class Decorator--><rect codeLine="8" fill="#FEFECE" filter="url(#fzrmowt5big1v)" height="93.0688" id="Decorator" style="stroke:#A80036;stroke-width:1.5;" width="192" x="189.5" y="184.583"/><ellipse cx="254.25" cy="200.583" fill="#ADD1B2" rx="11" ry="11" style="stroke:#A80036;stroke-width:1.0;"/><path d="M252.8281,205.9424 Q250.9688,205.9424 249.875,204.5518 Q248.7813,203.1611 248.7813,200.1768 Q248.7813,197.6455 249.9453,195.9893 Q251.1094,194.333 253.0938,194.333 Q254.5625,194.333 255.0313,194.458 Q255.5,194.6611 255.5,194.6611 Q255.5,194.6611 255.5,194.5908 Q255.5,194.5205 256.1094,193.5986 L257.1563,197.2549 L255.8281,197.6611 Q255.3594,196.1143 254.6953,195.4502 Q254.0313,194.7861 252.9688,194.7861 Q252.5781,194.7861 251.8125,196.3174 Q251.0469,197.8486 251.0469,200.0986 Q251.0469,202.5674 251.7109,203.958 Q252.375,205.3486 252.9063,205.3486 Q253.9688,205.3486 254.7266,204.583 Q255.4844,203.8174 255.8281,202.1611 L257.1563,202.7549 Q256.8281,204.1611 255.9297,205.0518 Q255.0313,205.9424 252.8281,205.9424 Z " fill="#000000"/><text fill="#000000" font-family="sans-serif" font-size="12" lengthAdjust="spacing" textLength="54" x="274.75" y="206.1406">Decorator</text><line style="stroke:#A80036;stroke-width:1.5;" x1="190.5" x2="380.5" y1="216.583" y2="216.583"/><polygon fill="none" points="200.5,222.583,204.5,226.583,200.5,230.583,196.5,226.583" style="stroke:#B38D22;stroke-width:1.0;"/><text fill="#000000" font-family="sans-serif" font-size="11" lengthAdjust="spacing" textLength="110" x="209.5" y="233.189">component:Component</text><line style="stroke:#A80036;stroke-width:1.5;" x1="190.5" x2="380.5" y1="239.606" y2="239.606"/><ellipse cx="200.5" cy="250.606" fill="#84BE84" rx="3" ry="3" style="stroke:#038048;stroke-width:1.0;"/><text fill="#000000" font-family="sans-serif" font-size="11" lengthAdjust="spacing" textLength="166" x="209.5" y="256.2119">Decorator(component:Component)</text><ellipse cx="200.5" cy="265.6289" fill="#84BE84" rx="3" ry="3" style="stroke:#038048;stroke-width:1.0;"/><text fill="#000000" font-family="sans-serif" font-size="11" lengthAdjust="spacing" textLength="76" x="209.5" y="271.2349">operation() void</text><!--MD5=[3d4911f658bf28a18bbdda28e39593ef]
class ConcreteDecoratorA--><rect codeLine="13" fill="#FEFECE" filter="url(#fzrmowt5big1v)" height="93.0688" id="ConcreteDecoratorA" style="stroke:#A80036;stroke-width:1.5;" width="244" x="23.5" y="31.583"/><ellipse cx="85.75" cy="47.583" fill="#ADD1B2" rx="11" ry="11" style="stroke:#A80036;stroke-width:1.0;"/><path d="M84.3281,52.9424 Q82.4688,52.9424 81.375,51.5518 Q80.2813,50.1611 80.2813,47.1768 Q80.2813,44.6455 81.4453,42.9893 Q82.6094,41.333 84.5938,41.333 Q86.0625,41.333 86.5313,41.458 Q87,41.6611 87,41.6611 Q87,41.6611 87,41.5908 Q87,41.5205 87.6094,40.5986 L88.6563,44.2549 L87.3281,44.6611 Q86.8594,43.1143 86.1953,42.4502 Q85.5313,41.7861 84.4688,41.7861 Q84.0781,41.7861 83.3125,43.3174 Q82.5469,44.8486 82.5469,47.0986 Q82.5469,49.5674 83.2109,50.958 Q83.875,52.3486 84.4063,52.3486 Q85.4688,52.3486 86.2266,51.583 Q86.9844,50.8174 87.3281,49.1611 L88.6563,49.7549 Q88.3281,51.1611 87.4297,52.0518 Q86.5313,52.9424 84.3281,52.9424 Z " fill="#000000"/><text fill="#000000" font-family="sans-serif" font-size="12" lengthAdjust="spacing" textLength="111" x="106.25" y="53.1406">ConcreteDecoratorA</text><line style="stroke:#A80036;stroke-width:1.5;" x1="24.5" x2="266.5" y1="63.583" y2="63.583"/><rect fill="none" height="6" style="stroke:#C82930;stroke-width:1.0;" width="6" x="31.5" y="71.583"/><text fill="#000000" font-family="sans-serif" font-size="11" lengthAdjust="spacing" textLength="86" x="43.5" y="80.189">addedState:String</text><line style="stroke:#A80036;stroke-width:1.5;" x1="24.5" x2="266.5" y1="86.606" y2="86.606"/><ellipse cx="34.5" cy="97.606" fill="#84BE84" rx="3" ry="3" style="stroke:#038048;stroke-width:1.0;"/><text fill="#000000" font-family="sans-serif" font-size="11" lengthAdjust="spacing" textLength="218" x="43.5" y="103.2119">ConcreteDecoratorA(component:Component)</text><ellipse cx="34.5" cy="112.6289" fill="#84BE84" rx="3" ry="3" style="stroke:#038048;stroke-width:1.0;"/><text fill="#000000" font-family="sans-serif" font-size="11" lengthAdjust="spacing" textLength="76" x="43.5" y="118.2349">operation() void</text><!--MD5=[215fe3d16f92b5b74e11efe33e544b1e]
class ConcreteDecoratorB--><rect codeLine="18" fill="#FEFECE" filter="url(#fzrmowt5big1v)" height="93.0688" id="ConcreteDecoratorB" style="stroke:#A80036;stroke-width:1.5;" width="243" x="303" y="31.583"/><ellipse cx="364.25" cy="47.583" fill="#ADD1B2" rx="11" ry="11" style="stroke:#A80036;stroke-width:1.0;"/><path d="M362.8281,52.9424 Q360.9688,52.9424 359.875,51.5518 Q358.7813,50.1611 358.7813,47.1768 Q358.7813,44.6455 359.9453,42.9893 Q361.1094,41.333 363.0938,41.333 Q364.5625,41.333 365.0313,41.458 Q365.5,41.6611 365.5,41.6611 Q365.5,41.6611 365.5,41.5908 Q365.5,41.5205 366.1094,40.5986 L367.1563,44.2549 L365.8281,44.6611 Q365.3594,43.1143 364.6953,42.4502 Q364.0313,41.7861 362.9688,41.7861 Q362.5781,41.7861 361.8125,43.3174 Q361.0469,44.8486 361.0469,47.0986 Q361.0469,49.5674 361.7109,50.958 Q362.375,52.3486 362.9063,52.3486 Q363.9688,52.3486 364.7266,51.583 Q365.4844,50.8174 365.8281,49.1611 L367.1563,49.7549 Q366.8281,51.1611 365.9297,52.0518 Q365.0313,52.9424 362.8281,52.9424 Z " fill="#000000"/><text fill="#000000" font-family="sans-serif" font-size="12" lengthAdjust="spacing" textLength="112" x="384.75" y="53.1406">ConcreteDecoratorB</text><line style="stroke:#A80036;stroke-width:1.5;" x1="304" x2="545" y1="63.583" y2="63.583"/><line style="stroke:#A80036;stroke-width:1.5;" x1="304" x2="545" y1="71.583" y2="71.583"/><ellipse cx="314" cy="82.583" fill="#84BE84" rx="3" ry="3" style="stroke:#038048;stroke-width:1.0;"/><text fill="#000000" font-family="sans-serif" font-size="11" lengthAdjust="spacing" textLength="217" x="323" y="88.189">ConcreteDecoratorB(component:Component)</text><rect fill="#F24D5C" height="6" style="stroke:#C82930;stroke-width:1.0;" width="6" x="311" y="94.606"/><text fill="#000000" font-family="sans-serif" font-size="11" lengthAdjust="spacing" textLength="104" x="323" y="103.2119">addedBehavior() void</text><ellipse cx="314" cy="112.6289" fill="#84BE84" rx="3" ry="3" style="stroke:#038048;stroke-width:1.0;"/><text fill="#000000" font-family="sans-serif" font-size="11" lengthAdjust="spacing" textLength="76" x="323" y="118.2349">operation() void</text><!--MD5=[1920a5294d0948a000991b5fcedbdd07]
link ConcreteComponent to Component--><path codeLine="23" d="M126.51,262.603 C154.76,281.353 191.35,305.623 222.3,326.153 " fill="none" id="ConcreteComponent-to-Component" style="stroke:#A80036;stroke-width:1.0;"/><polygon fill="none" points="226.5,320.543,239.29,337.433,218.76,332.203,226.5,320.543" style="stroke:#A80036;stroke-width:1.0;"/><!--MD5=[d032e12eb265359129046110fb5d856e]
link Decorator to Component--><path codeLine="24" d="M273.38,277.743 C272.64,290.453 272.55,304.333 273.12,317.323 " fill="none" id="Decorator-to-Component" style="stroke:#A80036;stroke-width:1.0;"/><polygon fill="none" points="280.11,316.843,274.63,337.313,266.15,317.903,280.11,316.843" style="stroke:#A80036;stroke-width:1.0;"/><!--MD5=[d032e12eb265359129046110fb5d856e]
link Decorator to Component--><path codeLine="25" d="M298.8444,289.732 C298.8444,289.732 298.94,313.483 298.23,324.043 " fill="none" id="Decorator-Component" style="stroke:#A80036;stroke-width:1.0;"/><polygon fill="#A80036" points="297.01,337.313,301.8135,328.715,297.4656,332.3338,293.8468,327.9859,297.01,337.313" style="stroke:#A80036;stroke-width:1.0;"/><line style="stroke:#A80036;stroke-width:1.0;" x1="297.4656" x2="298.195" y1="332.3338" y2="324.368"/><polygon fill="#FFFFFF" points="298.33,277.743,294.5909,283.909,298.8444,289.732,302.5835,283.566,298.33,277.743" style="stroke:#A80036;stroke-width:1.0;"/><!--MD5=[b9ed89f91d1e2dc72fb98508b22f5aa4]
link ConcreteDecoratorA to Decorator--><path codeLine="26" d="M187.88,124.793 C200.91,138.843 215.45,154.523 229.24,169.403 " fill="none" id="ConcreteDecoratorA-to-Decorator" style="stroke:#A80036;stroke-width:1.0;"/><polygon fill="none" points="234.79,165.103,243.26,184.523,224.53,174.613,234.79,165.103" style="stroke:#A80036;stroke-width:1.0;"/><!--MD5=[5fc436eab9f9ce331a13b77d5bcbc855]
link ConcreteDecoratorB to Decorator--><path codeLine="27" d="M382.42,124.793 C369.49,138.843 355.05,154.523 341.35,169.403 " fill="none" id="ConcreteDecoratorB-to-Decorator" style="stroke:#A80036;stroke-width:1.0;"/><polygon fill="none" points="346.13,174.553,327.44,184.523,335.83,165.063,346.13,174.553" style="stroke:#A80036;stroke-width:1.0;"/><!--MD5=[a69b2a7a4c26634e0b3486a1a1a485a8]
@startuml decorator
title 装饰器模式结构
class Component{
    +operation() void
}
class ConcreteComponent{
    +operation() void
}
class Decorator{
    #component:Component
    +Decorator(component:Component)
    +operation() void
}
class ConcreteDecoratorA{
    -addedState:String
    +ConcreteDecoratorA(component:Component)
    +operation() void
}
class ConcreteDecoratorB{
    +ConcreteDecoratorB(component:Component)
    -addedBehavior() void
    +operation() void
}
ConcreteComponent - -|> Component
Decorator - -|> Component
Decorator o- -> Component
ConcreteDecoratorA - -|> Decorator
ConcreteDecoratorB - -|> Decorator
@enduml

PlantUML version 1.2021.00(Sun Jan 10 18:25:05 CST 2021)
(GPL source distribution)
Java Runtime: Java(TM) SE Runtime Environment
JVM: Java HotSpot(TM) 64-Bit Server VM
Default Encoding: GBK
Language: zh
Country: CN
--></g></svg>