<?xml version="1.0" encoding="UTF-8" standalone="no"?><svg xmlns="http://www.w3.org/2000/svg" xmlns:xlink="http://www.w3.org/1999/xlink" contentScriptType="application/ecmascript" contentStyleType="text/css" height="168px" preserveAspectRatio="none" style="width:168px;height:168px;" version="1.1" viewBox="0 0 168 168" width="168px" zoomAndPan="magnify"><defs><filter height="300%" id="f8g3u6dhuowyd" width="300%" x="-1" y="-1"><feGaussianBlur result="blurOut" stdDeviation="2.0"/><feColorMatrix in="blurOut" result="blurOut2" type="matrix" values="0 0 0 0 0 0 0 0 0 0 0 0 0 0 0 0 0 0 .4 0"/><feOffset dx="4.0" dy="4.0" in="blurOut2" result="blurOut3"/><feBlend in="SourceGraphic" in2="blurOut3" mode="normal"/></filter></defs><g><text fill="#000000" font-family="sans-serif" font-size="18" lengthAdjust="spacing" textLength="126" x="17.5" y="20.6279">单例模式结构图</text><!--MD5=[2f4e497837a991172d40b04b7a7d0ca2]
class Singleton--><rect codeLine="2" fill="#FEFECE" filter="url(#f8g3u6dhuowyd)" height="123.1147" id="Singleton" style="stroke:#A80036;stroke-width:1.5;" width="147" x="7" y="31.583"/><ellipse cx="50.35" cy="47.583" fill="#ADD1B2" rx="11" ry="11" style="stroke:#A80036;stroke-width:1.0;"/><path d="M48.9281,52.9424 Q47.0688,52.9424 45.975,51.5518 Q44.8813,50.1611 44.8813,47.1768 Q44.8813,44.6455 46.0453,42.9893 Q47.2094,41.333 49.1938,41.333 Q50.6625,41.333 51.1313,41.458 Q51.6,41.6611 51.6,41.6611 Q51.6,41.6611 51.6,41.5908 Q51.6,41.5205 52.2094,40.5986 L53.2563,44.2549 L51.9281,44.6611 Q51.4594,43.1143 50.7953,42.4502 Q50.1313,41.7861 49.0688,41.7861 Q48.6781,41.7861 47.9125,43.3174 Q47.1469,44.8486 47.1469,47.0986 Q47.1469,49.5674 47.8109,50.958 Q48.475,52.3486 49.0063,52.3486 Q50.0688,52.3486 50.8266,51.583 Q51.5844,50.8174 51.9281,49.1611 L53.2563,49.7549 Q52.9281,51.1611 52.0297,52.0518 Q51.1313,52.9424 48.9281,52.9424 Z " fill="#000000"/><text fill="#000000" font-family="sans-serif" font-size="12" lengthAdjust="spacing" textLength="52" x="70.65" y="53.1406">Singleton</text><line style="stroke:#A80036;stroke-width:1.5;" x1="8" x2="153" y1="63.583" y2="63.583"/><rect fill="none" height="6" style="stroke:#C82930;stroke-width:1.0;" width="6" x="15" y="71.583"/><text fill="#000000" font-family="sans-serif" font-size="11" lengthAdjust="spacing" textLength="120" x="27" y="80.189">uniqueInstance:Singleton</text><rect fill="none" height="6" style="stroke:#C82930;stroke-width:1.0;" width="6" x="15" y="86.606"/><text fill="#000000" font-family="sans-serif" font-size="11" lengthAdjust="spacing" textLength="65" x="27" y="95.2119">singletonData</text><line style="stroke:#A80036;stroke-width:1.5;" x1="8" x2="153" y1="101.6289" y2="101.6289"/><rect fill="#F24D5C" height="6" style="stroke:#C82930;stroke-width:1.0;" width="6" x="15" y="109.6289"/><text fill="#000000" font-family="sans-serif" font-size="11" lengthAdjust="spacing" textLength="52" x="27" y="118.2349">Singleton()</text><ellipse cx="18" cy="127.6519" fill="#84BE84" rx="3" ry="3" style="stroke:#038048;stroke-width:1.0;"/><text fill="#000000" font-family="sans-serif" font-size="11" lengthAdjust="spacing" textLength="111" x="27" y="133.2578">getInstance() Singleton</text><ellipse cx="18" cy="142.6748" fill="#84BE84" rx="3" ry="3" style="stroke:#038048;stroke-width:1.0;"/><text fill="#000000" font-family="sans-serif" font-size="11" lengthAdjust="spacing" textLength="121" x="27" y="148.2808">singletonOperation() void</text><!--MD5=[4a664202cd36ab5b91aeeecefdef87ab]
@startuml singleton
title 单例模式结构图
class Singleton{
    -uniqueInstance:Singleton
    -Singleton()
    +getInstance() Singleton
    +singletonOperation() void
    -singletonData
}

@enduml

PlantUML version 1.2021.00(Sun Jan 10 18:25:05 CST 2021)
(GPL source distribution)
Java Runtime: Java(TM) SE Runtime Environment
JVM: Java HotSpot(TM) 64-Bit Server VM
Default Encoding: GBK
Language: zh
Country: CN
--></g></svg>