<?xml version="1.0" encoding="UTF-8" standalone="no"?><svg xmlns="http://www.w3.org/2000/svg" xmlns:xlink="http://www.w3.org/1999/xlink" contentScriptType="application/ecmascript" contentStyleType="text/css" height="246px" preserveAspectRatio="none" style="width:421px;height:246px;" version="1.1" viewBox="0 0 421 246" width="421px" zoomAndPan="magnify"><defs><filter height="300%" id="f1sviyb2kapfx8" width="300%" x="-1" y="-1"><feGaussianBlur result="blurOut" stdDeviation="2.0"/><feColorMatrix in="blurOut" result="blurOut2" type="matrix" values="0 0 0 0 0 0 0 0 0 0 0 0 0 0 0 0 0 0 .4 0"/><feOffset dx="4.0" dy="4.0" in="blurOut2" result="blurOut3"/><feBlend in="SourceGraphic" in2="blurOut3" mode="normal"/></filter></defs><g><text fill="#000000" font-family="sans-serif" font-size="18" lengthAdjust="spacing" textLength="144" x="132.25" y="20.6279">职责链模式结构图</text><!--MD5=[ed6624c6556d5e7b1bd23032162d20b7]
class Client--><rect codeLine="2" fill="#FEFECE" filter="url(#f1sviyb2kapfx8)" height="48" id="Client" style="stroke:#A80036;stroke-width:1.5;" width="64" x="7" y="39.083"/><ellipse cx="22" cy="55.083" fill="#ADD1B2" rx="11" ry="11" style="stroke:#A80036;stroke-width:1.0;"/><path d="M20.5781,60.4424 Q18.7188,60.4424 17.625,59.0518 Q16.5313,57.6611 16.5313,54.6768 Q16.5313,52.1455 17.6953,50.4893 Q18.8594,48.833 20.8438,48.833 Q22.3125,48.833 22.7813,48.958 Q23.25,49.1611 23.25,49.1611 Q23.25,49.1611 23.25,49.0908 Q23.25,49.0205 23.8594,48.0986 L24.9063,51.7549 L23.5781,52.1611 Q23.1094,50.6143 22.4453,49.9502 Q21.7813,49.2861 20.7188,49.2861 Q20.3281,49.2861 19.5625,50.8174 Q18.7969,52.3486 18.7969,54.5986 Q18.7969,57.0674 19.4609,58.458 Q20.125,59.8486 20.6563,59.8486 Q21.7188,59.8486 22.4766,59.083 Q23.2344,58.3174 23.5781,56.6611 L24.9063,57.2549 Q24.5781,58.6611 23.6797,59.5518 Q22.7813,60.4424 20.5781,60.4424 Z " fill="#000000"/><text fill="#000000" font-family="sans-serif" font-size="12" lengthAdjust="spacing" textLength="32" x="36" y="60.6406">Client</text><line style="stroke:#A80036;stroke-width:1.5;" x1="8" x2="70" y1="71.083" y2="71.083"/><line style="stroke:#A80036;stroke-width:1.5;" x1="8" x2="70" y1="79.083" y2="79.083"/><!--MD5=[a83d828be13d333e1fddb3d4d9d97191]
class Handler--><rect codeLine="3" fill="#FEFECE" filter="url(#f1sviyb2kapfx8)" height="78.0459" id="Handler" style="stroke:#A80036;stroke-width:1.5;" width="129" x="108.5" y="154.583"/><ellipse cx="147.35" cy="170.583" fill="#ADD1B2" rx="11" ry="11" style="stroke:#A80036;stroke-width:1.0;"/><path d="M145.9281,175.9424 Q144.0688,175.9424 142.975,174.5518 Q141.8813,173.1611 141.8813,170.1768 Q141.8813,167.6455 143.0453,165.9893 Q144.2094,164.333 146.1938,164.333 Q147.6625,164.333 148.1313,164.458 Q148.6,164.6611 148.6,164.6611 Q148.6,164.6611 148.6,164.5908 Q148.6,164.5205 149.2094,163.5986 L150.2563,167.2549 L148.9281,167.6611 Q148.4594,166.1143 147.7953,165.4502 Q147.1313,164.7861 146.0688,164.7861 Q145.6781,164.7861 144.9125,166.3174 Q144.1469,167.8486 144.1469,170.0986 Q144.1469,172.5674 144.8109,173.958 Q145.475,175.3486 146.0063,175.3486 Q147.0688,175.3486 147.8266,174.583 Q148.5844,173.8174 148.9281,172.1611 L150.2563,172.7549 Q149.9281,174.1611 149.0297,175.0518 Q148.1313,175.9424 145.9281,175.9424 Z " fill="#000000"/><text fill="#000000" font-family="sans-serif" font-size="12" lengthAdjust="spacing" textLength="44" x="166.65" y="176.1406">Handler</text><line style="stroke:#A80036;stroke-width:1.5;" x1="109.5" x2="236.5" y1="186.583" y2="186.583"/><polygon fill="none" points="119.5,192.583,123.5,196.583,119.5,200.583,115.5,196.583" style="stroke:#B38D22;stroke-width:1.0;"/><text fill="#000000" font-family="sans-serif" font-size="11" lengthAdjust="spacing" textLength="64" x="128.5" y="203.189">next: Handler</text><line style="stroke:#A80036;stroke-width:1.5;" x1="109.5" x2="236.5" y1="209.606" y2="209.606"/><ellipse cx="119.5" cy="220.606" fill="#84BE84" rx="3" ry="3" style="stroke:#038048;stroke-width:1.0;"/><text fill="#000000" font-family="sans-serif" font-size="11" lengthAdjust="spacing" textLength="103" x="128.5" y="226.2119">handleRequest():void</text><!--MD5=[731fbf0ce9de3ad4d274f9a96dfaccfc]
class ConcreteHandler1--><rect codeLine="7" fill="#FEFECE" filter="url(#f1sviyb2kapfx8)" height="63.0229" id="ConcreteHandler1" style="stroke:#A80036;stroke-width:1.5;" width="133" x="106.5" y="31.583"/><ellipse cx="121.5" cy="47.583" fill="#ADD1B2" rx="11" ry="11" style="stroke:#A80036;stroke-width:1.0;"/><path d="M120.0781,52.9424 Q118.2188,52.9424 117.125,51.5518 Q116.0313,50.1611 116.0313,47.1768 Q116.0313,44.6455 117.1953,42.9893 Q118.3594,41.333 120.3438,41.333 Q121.8125,41.333 122.2813,41.458 Q122.75,41.6611 122.75,41.6611 Q122.75,41.6611 122.75,41.5908 Q122.75,41.5205 123.3594,40.5986 L124.4063,44.2549 L123.0781,44.6611 Q122.6094,43.1143 121.9453,42.4502 Q121.2813,41.7861 120.2188,41.7861 Q119.8281,41.7861 119.0625,43.3174 Q118.2969,44.8486 118.2969,47.0986 Q118.2969,49.5674 118.9609,50.958 Q119.625,52.3486 120.1563,52.3486 Q121.2188,52.3486 121.9766,51.583 Q122.7344,50.8174 123.0781,49.1611 L124.4063,49.7549 Q124.0781,51.1611 123.1797,52.0518 Q122.2813,52.9424 120.0781,52.9424 Z " fill="#000000"/><text fill="#000000" font-family="sans-serif" font-size="12" lengthAdjust="spacing" textLength="101" x="135.5" y="53.1406">ConcreteHandler1</text><line style="stroke:#A80036;stroke-width:1.5;" x1="107.5" x2="238.5" y1="63.583" y2="63.583"/><line style="stroke:#A80036;stroke-width:1.5;" x1="107.5" x2="238.5" y1="71.583" y2="71.583"/><ellipse cx="117.5" cy="82.583" fill="#84BE84" rx="3" ry="3" style="stroke:#038048;stroke-width:1.0;"/><text fill="#000000" font-family="sans-serif" font-size="11" lengthAdjust="spacing" textLength="106" x="126.5" y="88.189">handleRequest(): void</text><!--MD5=[cc11201c13e98b76c77c9f64ba4e446d]
class ConcreteHandler2--><rect codeLine="10" fill="#FEFECE" filter="url(#f1sviyb2kapfx8)" height="63.0229" id="ConcreteHandler2" style="stroke:#A80036;stroke-width:1.5;" width="133" x="274.5" y="31.583"/><ellipse cx="289.5" cy="47.583" fill="#ADD1B2" rx="11" ry="11" style="stroke:#A80036;stroke-width:1.0;"/><path d="M288.0781,52.9424 Q286.2188,52.9424 285.125,51.5518 Q284.0313,50.1611 284.0313,47.1768 Q284.0313,44.6455 285.1953,42.9893 Q286.3594,41.333 288.3438,41.333 Q289.8125,41.333 290.2813,41.458 Q290.75,41.6611 290.75,41.6611 Q290.75,41.6611 290.75,41.5908 Q290.75,41.5205 291.3594,40.5986 L292.4063,44.2549 L291.0781,44.6611 Q290.6094,43.1143 289.9453,42.4502 Q289.2813,41.7861 288.2188,41.7861 Q287.8281,41.7861 287.0625,43.3174 Q286.2969,44.8486 286.2969,47.0986 Q286.2969,49.5674 286.9609,50.958 Q287.625,52.3486 288.1563,52.3486 Q289.2188,52.3486 289.9766,51.583 Q290.7344,50.8174 291.0781,49.1611 L292.4063,49.7549 Q292.0781,51.1611 291.1797,52.0518 Q290.2813,52.9424 288.0781,52.9424 Z " fill="#000000"/><text fill="#000000" font-family="sans-serif" font-size="12" lengthAdjust="spacing" textLength="101" x="303.5" y="53.1406">ConcreteHandler2</text><line style="stroke:#A80036;stroke-width:1.5;" x1="275.5" x2="406.5" y1="63.583" y2="63.583"/><line style="stroke:#A80036;stroke-width:1.5;" x1="275.5" x2="406.5" y1="71.583" y2="71.583"/><ellipse cx="285.5" cy="82.583" fill="#84BE84" rx="3" ry="3" style="stroke:#038048;stroke-width:1.0;"/><text fill="#000000" font-family="sans-serif" font-size="11" lengthAdjust="spacing" textLength="106" x="294.5" y="88.189">handleRequest(): void</text><!--MD5=[6ba6897f57fa70fe49c06b94b657e951]
link Client to Handler--><path codeLine="13" d="M63.27,87.353 C81.66,104.993 107.43,129.703 129.37,150.753 " fill="none" id="Client-to-Handler" style="stroke:#A80036;stroke-width:1.0;stroke-dasharray:7.0,7.0;"/><polygon fill="#A80036" points="133.14,154.363,129.4199,145.2438,129.5339,150.8995,123.8782,151.0135,133.14,154.363" style="stroke:#A80036;stroke-width:1.0;"/><!--MD5=[d23468fca398340a0c36ddc0a6b232d4]
link ConcreteHandler1 to Handler--><path codeLine="14" d="M173,94.863 C173,106.693 173,120.633 173,134.213 " fill="none" id="ConcreteHandler1-to-Handler" style="stroke:#A80036;stroke-width:1.0;"/><polygon fill="none" points="180,134.233,173,154.233,166,134.233,180,134.233" style="stroke:#A80036;stroke-width:1.0;"/><!--MD5=[f3ada08b7fda6d031ac255f2d94c06cd]
link ConcreteHandler2 to Handler--><path codeLine="15" d="M300.76,94.863 C282.21,109.053 259.71,126.263 238.79,142.263 " fill="none" id="ConcreteHandler2-to-Handler" style="stroke:#A80036;stroke-width:1.0;"/><polygon fill="none" points="242.96,147.883,222.83,154.473,234.46,136.763,242.96,147.883" style="stroke:#A80036;stroke-width:1.0;"/><!--MD5=[1986b5b9d1beaf6b68273a5be2f49647]
link Handler to Handler--><path codeLine="16" d="M242.98,169.613 C259.92,171.443 272.5,179.433 272.5,193.583 C272.5,207.733 259.92,215.723 242.98,217.553 " fill="none" id="Handler-Handler" style="stroke:#A80036;stroke-width:1.0;"/><polygon fill="#A80036" points="237.6,217.923,246.8436,221.3225,242.5892,217.5942,246.3175,213.3398,237.6,217.923" style="stroke:#A80036;stroke-width:1.0;"/><path d="M242.3261,173.5631 L250.8349,166.1065 M242.8522,165.5805 L250.3088,174.0892 " fill="none" style="stroke:#A80036;stroke-width:1.0;"/><!--MD5=[e6412cd6b9e67b5c16af8a53f8e7f517]
@startuml chanofresponsibility
title 职责链模式结构图
class Client {}
class Handler {
    #next: Handler
    +handleRequest():void
}
class ConcreteHandler1 {
    +handleRequest(): void
}
class ConcreteHandler2 {
    +handleRequest(): void
}
Client ..> Handler
ConcreteHandler1 - -|> Handler
ConcreteHandler2 - -|> Handler
Handler x- -> Handler
@enduml

PlantUML version 1.2021.00(Sun Jan 10 18:25:05 CST 2021)
(GPL source distribution)
Java Runtime: Java(TM) SE Runtime Environment
JVM: Java HotSpot(TM) 64-Bit Server VM
Default Encoding: GBK
Language: zh
Country: CN
--></g></svg>