<?xml version="1.0" encoding="UTF-8" standalone="no"?><svg xmlns="http://www.w3.org/2000/svg" xmlns:xlink="http://www.w3.org/1999/xlink" contentScriptType="application/ecmascript" contentStyleType="text/css" height="261px" preserveAspectRatio="none" style="width:710px;height:261px;" version="1.1" viewBox="0 0 710 261" width="710px" zoomAndPan="magnify"><defs><filter height="300%" id="f1l3keowejzuog" width="300%" x="-1" y="-1"><feGaussianBlur result="blurOut" stdDeviation="2.0"/><feColorMatrix in="blurOut" result="blurOut2" type="matrix" values="0 0 0 0 0 0 0 0 0 0 0 0 0 0 0 0 0 0 .4 0"/><feOffset dx="4.0" dy="4.0" in="blurOut2" result="blurOut3"/><feBlend in="SourceGraphic" in2="blurOut3" mode="normal"/></filter></defs><g><text fill="#000000" font-family="sans-serif" font-size="18" lengthAdjust="spacing" textLength="108" x="294.5" y="20.6279">策略模式结构</text><!--MD5=[da6c2d15ca4340ba025c6e6cae41bd65]
class ConcreteCstrategyA--><rect codeLine="12" fill="#FEFECE" filter="url(#f1l3keowejzuog)" height="63.0229" id="ConcreteCstrategyA" style="stroke:#A80036;stroke-width:1.5;" width="143" x="553" y="46.583"/><ellipse cx="568.9" cy="62.583" fill="#ADD1B2" rx="11" ry="11" style="stroke:#A80036;stroke-width:1.0;"/><path d="M567.4781,67.9424 Q565.6188,67.9424 564.525,66.5518 Q563.4313,65.1611 563.4313,62.1768 Q563.4313,59.6455 564.5953,57.9893 Q565.7594,56.333 567.7438,56.333 Q569.2125,56.333 569.6813,56.458 Q570.15,56.6611 570.15,56.6611 Q570.15,56.6611 570.15,56.5908 Q570.15,56.5205 570.7594,55.5986 L571.8063,59.2549 L570.4781,59.6611 Q570.0094,58.1143 569.3453,57.4502 Q568.6813,56.7861 567.6188,56.7861 Q567.2281,56.7861 566.4625,58.3174 Q565.6969,59.8486 565.6969,62.0986 Q565.6969,64.5674 566.3609,65.958 Q567.025,67.3486 567.5563,67.3486 Q568.6188,67.3486 569.3766,66.583 Q570.1344,65.8174 570.4781,64.1611 L571.8063,64.7549 Q571.4781,66.1611 570.5797,67.0518 Q569.6813,67.9424 567.4781,67.9424 Z " fill="#000000"/><text fill="#000000" font-family="sans-serif" font-size="12" lengthAdjust="spacing" textLength="109" x="583.1" y="68.1406">ConcreteCstrategyA</text><line style="stroke:#A80036;stroke-width:1.5;" x1="554" x2="695" y1="78.583" y2="78.583"/><line style="stroke:#A80036;stroke-width:1.5;" x1="554" x2="695" y1="86.583" y2="86.583"/><ellipse cx="564" cy="97.583" fill="#84BE84" rx="3" ry="3" style="stroke:#038048;stroke-width:1.0;"/><text fill="#000000" font-family="sans-serif" font-size="11" lengthAdjust="spacing" textLength="117" x="573" y="103.189">algorithmInterface() void</text><!--MD5=[f574a1b90a8131379c7d0b8aec1a401b]
class ConcreteCstrategyB--><rect codeLine="15" fill="#FEFECE" filter="url(#f1l3keowejzuog)" height="63.0229" id="ConcreteCstrategyB" style="stroke:#A80036;stroke-width:1.5;" width="143" x="375" y="46.583"/><ellipse cx="390.45" cy="62.583" fill="#ADD1B2" rx="11" ry="11" style="stroke:#A80036;stroke-width:1.0;"/><path d="M389.0281,67.9424 Q387.1688,67.9424 386.075,66.5518 Q384.9813,65.1611 384.9813,62.1768 Q384.9813,59.6455 386.1453,57.9893 Q387.3094,56.333 389.2938,56.333 Q390.7625,56.333 391.2313,56.458 Q391.7,56.6611 391.7,56.6611 Q391.7,56.6611 391.7,56.5908 Q391.7,56.5205 392.3094,55.5986 L393.3563,59.2549 L392.0281,59.6611 Q391.5594,58.1143 390.8953,57.4502 Q390.2313,56.7861 389.1688,56.7861 Q388.7781,56.7861 388.0125,58.3174 Q387.2469,59.8486 387.2469,62.0986 Q387.2469,64.5674 387.9109,65.958 Q388.575,67.3486 389.1063,67.3486 Q390.1688,67.3486 390.9266,66.583 Q391.6844,65.8174 392.0281,64.1611 L393.3563,64.7549 Q393.0281,66.1611 392.1297,67.0518 Q391.2313,67.9424 389.0281,67.9424 Z " fill="#000000"/><text fill="#000000" font-family="sans-serif" font-size="12" lengthAdjust="spacing" textLength="110" x="404.55" y="68.1406">ConcreteCstrategyB</text><line style="stroke:#A80036;stroke-width:1.5;" x1="376" x2="517" y1="78.583" y2="78.583"/><line style="stroke:#A80036;stroke-width:1.5;" x1="376" x2="517" y1="86.583" y2="86.583"/><ellipse cx="386" cy="97.583" fill="#84BE84" rx="3" ry="3" style="stroke:#038048;stroke-width:1.0;"/><text fill="#000000" font-family="sans-serif" font-size="11" lengthAdjust="spacing" textLength="117" x="395" y="103.189">algorithmInterface() void</text><!--MD5=[a3faa355b8e3c2b0aa649813511cca49]
class ConcreteCstrategyC--><rect codeLine="18" fill="#FEFECE" filter="url(#f1l3keowejzuog)" height="63.0229" id="ConcreteCstrategyC" style="stroke:#A80036;stroke-width:1.5;" width="143" x="197" y="46.583"/><ellipse cx="212" cy="62.583" fill="#ADD1B2" rx="11" ry="11" style="stroke:#A80036;stroke-width:1.0;"/><path d="M210.5781,67.9424 Q208.7188,67.9424 207.625,66.5518 Q206.5313,65.1611 206.5313,62.1768 Q206.5313,59.6455 207.6953,57.9893 Q208.8594,56.333 210.8438,56.333 Q212.3125,56.333 212.7813,56.458 Q213.25,56.6611 213.25,56.6611 Q213.25,56.6611 213.25,56.5908 Q213.25,56.5205 213.8594,55.5986 L214.9063,59.2549 L213.5781,59.6611 Q213.1094,58.1143 212.4453,57.4502 Q211.7813,56.7861 210.7188,56.7861 Q210.3281,56.7861 209.5625,58.3174 Q208.7969,59.8486 208.7969,62.0986 Q208.7969,64.5674 209.4609,65.958 Q210.125,67.3486 210.6563,67.3486 Q211.7188,67.3486 212.4766,66.583 Q213.2344,65.8174 213.5781,64.1611 L214.9063,64.7549 Q214.5781,66.1611 213.6797,67.0518 Q212.7813,67.9424 210.5781,67.9424 Z " fill="#000000"/><text fill="#000000" font-family="sans-serif" font-size="12" lengthAdjust="spacing" textLength="111" x="226" y="68.1406">ConcreteCstrategyC</text><line style="stroke:#A80036;stroke-width:1.5;" x1="198" x2="339" y1="78.583" y2="78.583"/><line style="stroke:#A80036;stroke-width:1.5;" x1="198" x2="339" y1="86.583" y2="86.583"/><ellipse cx="208" cy="97.583" fill="#84BE84" rx="3" ry="3" style="stroke:#038048;stroke-width:1.0;"/><text fill="#000000" font-family="sans-serif" font-size="11" lengthAdjust="spacing" textLength="117" x="217" y="103.189">algorithmInterface() void</text><!--MD5=[6754354365917abf8f1a56af1b7e344c]
class Context--><rect codeLine="2" fill="#FEFECE" filter="url(#f1l3keowejzuog)" height="93.0688" id="Context" style="stroke:#A80036;stroke-width:1.5;" width="155" x="7" y="31.583"/><ellipse cx="59.75" cy="47.583" fill="#ADD1B2" rx="11" ry="11" style="stroke:#A80036;stroke-width:1.0;"/><path d="M58.3281,52.9424 Q56.4688,52.9424 55.375,51.5518 Q54.2813,50.1611 54.2813,47.1768 Q54.2813,44.6455 55.4453,42.9893 Q56.6094,41.333 58.5938,41.333 Q60.0625,41.333 60.5313,41.458 Q61,41.6611 61,41.6611 Q61,41.6611 61,41.5908 Q61,41.5205 61.6094,40.5986 L62.6563,44.2549 L61.3281,44.6611 Q60.8594,43.1143 60.1953,42.4502 Q59.5313,41.7861 58.4688,41.7861 Q58.0781,41.7861 57.3125,43.3174 Q56.5469,44.8486 56.5469,47.0986 Q56.5469,49.5674 57.2109,50.958 Q57.875,52.3486 58.4063,52.3486 Q59.4688,52.3486 60.2266,51.583 Q60.9844,50.8174 61.3281,49.1611 L62.6563,49.7549 Q62.3281,51.1611 61.4297,52.0518 Q60.5313,52.9424 58.3281,52.9424 Z " fill="#000000"/><text fill="#000000" font-family="sans-serif" font-size="12" lengthAdjust="spacing" textLength="41" x="80.25" y="53.1406">Context</text><line style="stroke:#A80036;stroke-width:1.5;" x1="8" x2="161" y1="63.583" y2="63.583"/><rect fill="none" height="6" style="stroke:#C82930;stroke-width:1.0;" width="6" x="15" y="71.583"/><text fill="#000000" font-family="sans-serif" font-size="11" lengthAdjust="spacing" textLength="84" x="27" y="80.189">strategy:Strategy</text><line style="stroke:#A80036;stroke-width:1.5;" x1="8" x2="161" y1="86.606" y2="86.606"/><ellipse cx="18" cy="97.606" fill="#84BE84" rx="3" ry="3" style="stroke:#038048;stroke-width:1.0;"/><text fill="#000000" font-family="sans-serif" font-size="11" lengthAdjust="spacing" textLength="129" x="27" y="103.2119">Context(strategy:Strategy)</text><ellipse cx="18" cy="112.6289" fill="#84BE84" rx="3" ry="3" style="stroke:#038048;stroke-width:1.0;"/><text fill="#000000" font-family="sans-serif" font-size="11" lengthAdjust="spacing" textLength="110" x="27" y="118.2349">contextInterface() void</text><!--MD5=[377953f0e8c8c0131a700fca43c84158]
class Strategy--><rect codeLine="7" fill="#FEFECE" filter="url(#f1l3keowejzuog)" height="63.0229" id="Strategy" style="stroke:#A80036;stroke-width:1.5;" width="143" x="286" y="184.583"/><ellipse cx="330.75" cy="200.583" fill="#B4A7E5" rx="11" ry="11" style="stroke:#A80036;stroke-width:1.0;"/><path d="M327.3438,194.8643 L327.3438,194.458 L333.6563,194.458 L333.6563,194.8643 L331.125,194.8643 Q331.125,194.8643 331.2734,194.9971 Q331.4219,195.1299 331.4219,195.3955 L331.4219,204.8799 Q331.4219,205.1455 331.6406,205.2783 Q331.8594,205.4111 331.8594,205.4111 L333.6563,205.4111 L333.6563,205.8174 L327.3438,205.8174 L327.3438,205.4111 L328.875,205.4111 Q329.2031,205.4111 329.3359,205.2783 Q329.4688,205.1455 329.4688,204.8799 L329.4688,195.3955 Q329.4688,195.1299 329.3359,194.9971 Q329.2031,194.8643 328.875,194.8643 L327.3438,194.8643 Z " fill="#000000"/><text fill="#000000" font-family="sans-serif" font-size="12" font-style="italic" lengthAdjust="spacing" textLength="45" x="351.25" y="206.1406">Strategy</text><line style="stroke:#A80036;stroke-width:1.5;" x1="287" x2="428" y1="216.583" y2="216.583"/><line style="stroke:#A80036;stroke-width:1.5;" x1="287" x2="428" y1="224.583" y2="224.583"/><ellipse cx="297" cy="235.583" fill="#84BE84" rx="3" ry="3" style="stroke:#038048;stroke-width:1.0;"/><text fill="#000000" font-family="sans-serif" font-size="11" lengthAdjust="spacing" textLength="117" x="306" y="241.189">algorithmInterface() void</text><!--MD5=[0a7be358f08202a33cfcf8e27bbb9c25]
link Context to Strategy--><path codeLine="23" d="M172.5897,129.4673 C172.5897,129.4673 178.23,132.423 180.5,133.583 C211.06,149.253 245.21,165.313 275.31,178.993 " fill="none" id="Context-Strategy" style="stroke:#A80036;stroke-width:1.0;"/><polygon fill="#A80036" points="287.49,184.493,280.9352,177.1422,282.9335,182.4343,277.6413,184.4326,287.49,184.493" style="stroke:#A80036;stroke-width:1.0;"/><line style="stroke:#A80036;stroke-width:1.0;" x1="282.9335" x2="275.645" y1="182.4343" y2="179.143"/><polygon fill="#FFFFFF" points="162,123.823,165.4134,130.1751,172.5897,129.4673,169.1763,123.1153,162,123.823" style="stroke:#A80036;stroke-width:1.0;"/><!--MD5=[7a090cc51b90a97c7b0a6e6fdeb08451]
link ConcreteCstrategyA to Strategy--><path codeLine="24" d="M576.61,109.853 C563.47,117.903 549.09,126.343 535.5,133.583 C507.32,148.593 475.86,163.553 447.32,176.493 " fill="none" id="ConcreteCstrategyA-to-Strategy" style="stroke:#A80036;stroke-width:1.0;stroke-dasharray:7.0,7.0;"/><polygon fill="none" points="450.16,182.893,429.05,184.683,444.44,170.113,450.16,182.893" style="stroke:#A80036;stroke-width:1.0;"/><!--MD5=[85e578ecd0a9904de7a43818c53e9ad2]
link ConcreteCstrategyB to Strategy--><path codeLine="25" d="M426.53,109.603 C415.38,126.633 401.25,148.223 388.69,167.423 " fill="none" id="ConcreteCstrategyB-to-Strategy" style="stroke:#A80036;stroke-width:1.0;stroke-dasharray:7.0,7.0;"/><polygon fill="none" points="394.52,171.293,377.71,184.193,382.81,163.623,394.52,171.293" style="stroke:#A80036;stroke-width:1.0;"/><!--MD5=[9cfc50c21a3471336bb05a44623f5030]
link ConcreteCstrategyC to Strategy--><path codeLine="26" d="M288.47,109.603 C299.62,126.633 313.75,148.223 326.31,167.423 " fill="none" id="ConcreteCstrategyC-to-Strategy" style="stroke:#A80036;stroke-width:1.0;stroke-dasharray:7.0,7.0;"/><polygon fill="none" points="332.19,163.623,337.29,184.193,320.48,171.293,332.19,163.623" style="stroke:#A80036;stroke-width:1.0;"/><!--MD5=[8f5771f6ef40527e2480621c6b5d4e8d]
@startuml strategy
title 策略模式结构
    class Context{
        -strategy:Strategy
        +Context(strategy:Strategy)
        +contextInterface() void
    }
    interface Strategy{
        +algorithmInterface() void
    }

together {
    class ConcreteCstrategyA{
        +algorithmInterface() void
    }
    class ConcreteCstrategyB{
        +algorithmInterface() void
    }
    class ConcreteCstrategyC{
        +algorithmInterface() void
    }
}

Context o- -> Strategy
ConcreteCstrategyA ..|> Strategy
ConcreteCstrategyB ..|> Strategy
ConcreteCstrategyC ..|> Strategy
@enduml

PlantUML version 1.2021.00(Sun Jan 10 18:25:05 CST 2021)
(GPL source distribution)
Java Runtime: Java(TM) SE Runtime Environment
JVM: Java HotSpot(TM) 64-Bit Server VM
Default Encoding: GBK
Language: zh
Country: CN
--></g></svg>