<?xml version="1.0" encoding="UTF-8" standalone="no"?><svg xmlns="http://www.w3.org/2000/svg" xmlns:xlink="http://www.w3.org/1999/xlink" contentScriptType="application/ecmascript" contentStyleType="text/css" height="246px" preserveAspectRatio="none" style="width:708px;height:246px;" version="1.1" viewBox="0 0 708 246" width="708px" zoomAndPan="magnify"><defs><filter height="300%" id="fa32brb0j1usg" width="300%" x="-1" y="-1"><feGaussianBlur result="blurOut" stdDeviation="2.0"/><feColorMatrix in="blurOut" result="blurOut2" type="matrix" values="0 0 0 0 0 0 0 0 0 0 0 0 0 0 0 0 0 0 .4 0"/><feOffset dx="4.0" dy="4.0" in="blurOut2" result="blurOut3"/><feBlend in="SourceGraphic" in2="blurOut3" mode="normal"/></filter></defs><g><text fill="#000000" font-family="sans-serif" font-size="18" lengthAdjust="spacing" textLength="154" x="270.75" y="20.6279">状态模式uml结构图</text><!--MD5=[6754354365917abf8f1a56af1b7e344c]
class Context--><rect codeLine="4" fill="#FEFECE" filter="url(#fa32brb0j1usg)" height="78.0459" id="Context" style="stroke:#A80036;stroke-width:1.5;" width="202" x="7" y="31.583"/><ellipse cx="83.25" cy="47.583" fill="#ADD1B2" rx="11" ry="11" style="stroke:#A80036;stroke-width:1.0;"/><path d="M81.8281,52.9424 Q79.9688,52.9424 78.875,51.5518 Q77.7813,50.1611 77.7813,47.1768 Q77.7813,44.6455 78.9453,42.9893 Q80.1094,41.333 82.0938,41.333 Q83.5625,41.333 84.0313,41.458 Q84.5,41.6611 84.5,41.6611 Q84.5,41.6611 84.5,41.5908 Q84.5,41.5205 85.1094,40.5986 L86.1563,44.2549 L84.8281,44.6611 Q84.3594,43.1143 83.6953,42.4502 Q83.0313,41.7861 81.9688,41.7861 Q81.5781,41.7861 80.8125,43.3174 Q80.0469,44.8486 80.0469,47.0986 Q80.0469,49.5674 80.7109,50.958 Q81.375,52.3486 81.9063,52.3486 Q82.9688,52.3486 83.7266,51.583 Q84.4844,50.8174 84.8281,49.1611 L86.1563,49.7549 Q85.8281,51.1611 84.9297,52.0518 Q84.0313,52.9424 81.8281,52.9424 Z " fill="#000000"/><text fill="#000000" font-family="sans-serif" font-size="12" lengthAdjust="spacing" textLength="41" x="103.75" y="53.1406">Context</text><line style="stroke:#A80036;stroke-width:1.5;" x1="8" x2="208" y1="63.583" y2="63.583"/><rect fill="none" height="6" style="stroke:#C82930;stroke-width:1.0;" width="6" x="15" y="71.583"/><text fill="#000000" font-family="sans-serif" font-size="11" lengthAdjust="spacing" textLength="52" x="27" y="80.189">state State</text><line style="stroke:#A80036;stroke-width:1.5;" x1="8" x2="208" y1="86.606" y2="86.606"/><ellipse cx="18" cy="97.606" fill="#84BE84" rx="3" ry="3" style="stroke:#038048;stroke-width:1.0;"/><text fill="#000000" font-family="sans-serif" font-size="11" lengthAdjust="spacing" textLength="176" x="27" y="103.2119">request(sampleParmeter:String) void</text><!--MD5=[60d6b92408f98aed8df94d5c6e04aa63]
class State--><rect codeLine="10" fill="#FEFECE" filter="url(#fa32brb0j1usg)" height="63.0229" id="State" style="stroke:#A80036;stroke-width:1.5;" width="197" x="265.5" y="169.583"/><ellipse cx="345.75" cy="185.583" fill="#B4A7E5" rx="11" ry="11" style="stroke:#A80036;stroke-width:1.0;"/><path d="M342.3438,179.8643 L342.3438,179.458 L348.6563,179.458 L348.6563,179.8643 L346.125,179.8643 Q346.125,179.8643 346.2734,179.9971 Q346.4219,180.1299 346.4219,180.3955 L346.4219,189.8799 Q346.4219,190.1455 346.6406,190.2783 Q346.8594,190.4111 346.8594,190.4111 L348.6563,190.4111 L348.6563,190.8174 L342.3438,190.8174 L342.3438,190.4111 L343.875,190.4111 Q344.2031,190.4111 344.3359,190.2783 Q344.4688,190.1455 344.4688,189.8799 L344.4688,180.3955 Q344.4688,180.1299 344.3359,179.9971 Q344.2031,179.8643 343.875,179.8643 L342.3438,179.8643 Z " fill="#000000"/><text fill="#000000" font-family="sans-serif" font-size="12" font-style="italic" lengthAdjust="spacing" textLength="28" x="366.25" y="191.1406">State</text><line style="stroke:#A80036;stroke-width:1.5;" x1="266.5" x2="461.5" y1="201.583" y2="201.583"/><line style="stroke:#A80036;stroke-width:1.5;" x1="266.5" x2="461.5" y1="209.583" y2="209.583"/><ellipse cx="276.5" cy="220.583" fill="#84BE84" rx="3" ry="3" style="stroke:#038048;stroke-width:1.0;"/><text fill="#000000" font-family="sans-serif" font-size="11" lengthAdjust="spacing" textLength="171" x="285.5" y="226.189">handle(sampleParmeter:String) void</text><!--MD5=[8ce8754eae416e99ceeb172ff1b4777a]
class ConcreteStateA--><rect codeLine="13" fill="#FEFECE" filter="url(#fa32brb0j1usg)" height="63.0229" id="ConcreteStateA" style="stroke:#A80036;stroke-width:1.5;" width="197" x="497.5" y="39.083"/><ellipse cx="549.25" cy="55.083" fill="#ADD1B2" rx="11" ry="11" style="stroke:#A80036;stroke-width:1.0;"/><path d="M547.8281,60.4424 Q545.9688,60.4424 544.875,59.0518 Q543.7813,57.6611 543.7813,54.6768 Q543.7813,52.1455 544.9453,50.4893 Q546.1094,48.833 548.0938,48.833 Q549.5625,48.833 550.0313,48.958 Q550.5,49.1611 550.5,49.1611 Q550.5,49.1611 550.5,49.0908 Q550.5,49.0205 551.1094,48.0986 L552.1563,51.7549 L550.8281,52.1611 Q550.3594,50.6143 549.6953,49.9502 Q549.0313,49.2861 547.9688,49.2861 Q547.5781,49.2861 546.8125,50.8174 Q546.0469,52.3486 546.0469,54.5986 Q546.0469,57.0674 546.7109,58.458 Q547.375,59.8486 547.9063,59.8486 Q548.9688,59.8486 549.7266,59.083 Q550.4844,58.3174 550.8281,56.6611 L552.1563,57.2549 Q551.8281,58.6611 550.9297,59.5518 Q550.0313,60.4424 547.8281,60.4424 Z " fill="#000000"/><text fill="#000000" font-family="sans-serif" font-size="12" lengthAdjust="spacing" textLength="85" x="569.75" y="60.6406">ConcreteStateA</text><line style="stroke:#A80036;stroke-width:1.5;" x1="498.5" x2="693.5" y1="71.083" y2="71.083"/><line style="stroke:#A80036;stroke-width:1.5;" x1="498.5" x2="693.5" y1="79.083" y2="79.083"/><ellipse cx="508.5" cy="90.083" fill="#84BE84" rx="3" ry="3" style="stroke:#038048;stroke-width:1.0;"/><text fill="#000000" font-family="sans-serif" font-size="11" lengthAdjust="spacing" textLength="171" x="517.5" y="95.689">handle(sampleParmeter:String) void</text><!--MD5=[2a56818668b9fdbbaba8565da0ccac7d]
class ConcreteStateB--><rect codeLine="16" fill="#FEFECE" filter="url(#fa32brb0j1usg)" height="63.0229" id="ConcreteStateB" style="stroke:#A80036;stroke-width:1.5;" width="197" x="265.5" y="39.083"/><ellipse cx="316.75" cy="55.083" fill="#ADD1B2" rx="11" ry="11" style="stroke:#A80036;stroke-width:1.0;"/><path d="M315.3281,60.4424 Q313.4688,60.4424 312.375,59.0518 Q311.2813,57.6611 311.2813,54.6768 Q311.2813,52.1455 312.4453,50.4893 Q313.6094,48.833 315.5938,48.833 Q317.0625,48.833 317.5313,48.958 Q318,49.1611 318,49.1611 Q318,49.1611 318,49.0908 Q318,49.0205 318.6094,48.0986 L319.6563,51.7549 L318.3281,52.1611 Q317.8594,50.6143 317.1953,49.9502 Q316.5313,49.2861 315.4688,49.2861 Q315.0781,49.2861 314.3125,50.8174 Q313.5469,52.3486 313.5469,54.5986 Q313.5469,57.0674 314.2109,58.458 Q314.875,59.8486 315.4063,59.8486 Q316.4688,59.8486 317.2266,59.083 Q317.9844,58.3174 318.3281,56.6611 L319.6563,57.2549 Q319.3281,58.6611 318.4297,59.5518 Q317.5313,60.4424 315.3281,60.4424 Z " fill="#000000"/><text fill="#000000" font-family="sans-serif" font-size="12" lengthAdjust="spacing" textLength="86" x="337.25" y="60.6406">ConcreteStateB</text><line style="stroke:#A80036;stroke-width:1.5;" x1="266.5" x2="461.5" y1="71.083" y2="71.083"/><line style="stroke:#A80036;stroke-width:1.5;" x1="266.5" x2="461.5" y1="79.083" y2="79.083"/><ellipse cx="276.5" cy="90.083" fill="#84BE84" rx="3" ry="3" style="stroke:#038048;stroke-width:1.0;"/><text fill="#000000" font-family="sans-serif" font-size="11" lengthAdjust="spacing" textLength="171" x="285.5" y="95.689">handle(sampleParmeter:String) void</text><!--MD5=[64495b8fbf9e79a080f449d41e5a6213]
link Context to State--><path codeLine="20" d="M194.4952,114.9954 C194.4952,114.9954 261.3,148.533 291.03,163.453 " fill="none" id="Context-State" style="stroke:#A80036;stroke-width:1.0;"/><polygon fill="#A80036" points="303.03,169.473,296.7802,161.8612,298.5612,167.2303,293.192,169.0113,303.03,169.473" style="stroke:#A80036;stroke-width:1.0;"/><line style="stroke:#A80036;stroke-width:1.0;" x1="298.5612" x2="291.41" y1="167.2303" y2="163.648"/><polygon fill="#FFFFFF" points="183.77,109.613,187.3385,115.8793,194.4952,114.9954,190.9267,108.7291,183.77,109.613" style="stroke:#A80036;stroke-width:1.0;"/><!--MD5=[eb6f15bdf98ba2a6a04ae2b3cca7e0be]
link ConcreteStateA to State--><path codeLine="21" d="M540.72,102.203 C509.74,119.363 470.71,140.983 437.21,159.533 " fill="none" id="ConcreteStateA-to-State" style="stroke:#A80036;stroke-width:1.0;stroke-dasharray:7.0,7.0;"/><polygon fill="none" points="440.14,165.913,419.25,169.483,433.36,153.663,440.14,165.913" style="stroke:#A80036;stroke-width:1.0;"/><!--MD5=[40f0920074fade095a5be3a5b389c686]
link ConcreteStateB to State--><path codeLine="22" d="M364,102.363 C364,116.433 364,133.463 364,149.343 " fill="none" id="ConcreteStateB-to-State" style="stroke:#A80036;stroke-width:1.0;stroke-dasharray:7.0,7.0;"/><polygon fill="none" points="371,149.553,364,169.553,357,149.553,371,149.553" style="stroke:#A80036;stroke-width:1.0;"/><!--MD5=[cd906a64d71b0b3d6f40709a63db72ad]
@startuml state
title 状态模式uml结构图

together {
    class Context{
        -state State
        +request(sampleParmeter:String) void
    }
}
together {
    interface State{
        +handle(sampleParmeter:String) void
    }
    class ConcreteStateA{
        +handle(sampleParmeter:String) void
    }
    class ConcreteStateB{
        +handle(sampleParmeter:String) void
    }
}
Context o- -> State
ConcreteStateA ..|> State
ConcreteStateB ..|> State

@enduml

PlantUML version 1.2021.00(Sun Jan 10 18:25:05 CST 2021)
(GPL source distribution)
Java Runtime: Java(TM) SE Runtime Environment
JVM: Java HotSpot(TM) 64-Bit Server VM
Default Encoding: GBK
Language: zh
Country: CN
--></g></svg>