<?xml version="1.0" encoding="UTF-8" standalone="no"?><svg xmlns="http://www.w3.org/2000/svg" xmlns:xlink="http://www.w3.org/1999/xlink" contentScriptType="application/ecmascript" contentStyleType="text/css" height="399px" preserveAspectRatio="none" style="width:530px;height:399px;" version="1.1" viewBox="0 0 530 399" width="530px" zoomAndPan="magnify"><defs><filter height="300%" id="f112f8q7m02xka" width="300%" x="-1" y="-1"><feGaussianBlur result="blurOut" stdDeviation="2.0"/><feColorMatrix in="blurOut" result="blurOut2" type="matrix" values="0 0 0 0 0 0 0 0 0 0 0 0 0 0 0 0 0 0 .4 0"/><feOffset dx="4.0" dy="4.0" in="blurOut2" result="blurOut3"/><feBlend in="SourceGraphic" in2="blurOut3" mode="normal"/></filter></defs><g><text fill="#000000" font-family="sans-serif" font-size="18" lengthAdjust="spacing" textLength="126" x="195.5" y="20.6279">桥接模式结构图</text><!--MD5=[e122f73aad4e23bd379e5a2a2f5217b5]
class Implementor--><rect codeLine="3" fill="#FEFECE" filter="url(#f112f8q7m02xka)" height="63.0229" id="Implementor" style="stroke:#A80036;stroke-width:1.5;" width="120" x="221.5" y="322.583"/><ellipse cx="244.15" cy="338.583" fill="#B4A7E5" rx="11" ry="11" style="stroke:#A80036;stroke-width:1.0;"/><path d="M240.7438,332.8643 L240.7438,332.458 L247.0563,332.458 L247.0563,332.8643 L244.525,332.8643 Q244.525,332.8643 244.6734,332.9971 Q244.8219,333.1299 244.8219,333.3955 L244.8219,342.8799 Q244.8219,343.1455 245.0406,343.2783 Q245.2594,343.4111 245.2594,343.4111 L247.0563,343.4111 L247.0563,343.8174 L240.7438,343.8174 L240.7438,343.4111 L242.275,343.4111 Q242.6031,343.4111 242.7359,343.2783 Q242.8688,343.1455 242.8688,342.8799 L242.8688,333.3955 Q242.8688,333.1299 242.7359,332.9971 Q242.6031,332.8643 242.275,332.8643 L240.7438,332.8643 Z " fill="#000000"/><text fill="#000000" font-family="sans-serif" font-size="12" font-style="italic" lengthAdjust="spacing" textLength="71" x="259.85" y="344.1406">Implementor</text><line style="stroke:#A80036;stroke-width:1.5;" x1="222.5" x2="340.5" y1="354.583" y2="354.583"/><line style="stroke:#A80036;stroke-width:1.5;" x1="222.5" x2="340.5" y1="362.583" y2="362.583"/><ellipse cx="232.5" cy="373.583" fill="#84BE84" rx="3" ry="3" style="stroke:#038048;stroke-width:1.0;"/><text fill="#000000" font-family="sans-serif" font-size="11" lengthAdjust="spacing" textLength="94" x="241.5" y="379.189">operationImpl() void</text><!--MD5=[6cb5a656b1926e357f559324ef33a336]
class ConcreteImplementorA--><rect codeLine="6" fill="#FEFECE" filter="url(#f112f8q7m02xka)" height="63.0229" id="ConcreteImplementorA" style="stroke:#A80036;stroke-width:1.5;" width="159" x="7" y="184.583"/><ellipse cx="22" cy="200.583" fill="#ADD1B2" rx="11" ry="11" style="stroke:#A80036;stroke-width:1.0;"/><path d="M20.5781,205.9424 Q18.7188,205.9424 17.625,204.5518 Q16.5313,203.1611 16.5313,200.1768 Q16.5313,197.6455 17.6953,195.9893 Q18.8594,194.333 20.8438,194.333 Q22.3125,194.333 22.7813,194.458 Q23.25,194.6611 23.25,194.6611 Q23.25,194.6611 23.25,194.5908 Q23.25,194.5205 23.8594,193.5986 L24.9063,197.2549 L23.5781,197.6611 Q23.1094,196.1143 22.4453,195.4502 Q21.7813,194.7861 20.7188,194.7861 Q20.3281,194.7861 19.5625,196.3174 Q18.7969,197.8486 18.7969,200.0986 Q18.7969,202.5674 19.4609,203.958 Q20.125,205.3486 20.6563,205.3486 Q21.7188,205.3486 22.4766,204.583 Q23.2344,203.8174 23.5781,202.1611 L24.9063,202.7549 Q24.5781,204.1611 23.6797,205.0518 Q22.7813,205.9424 20.5781,205.9424 Z " fill="#000000"/><text fill="#000000" font-family="sans-serif" font-size="12" lengthAdjust="spacing" textLength="127" x="36" y="206.1406">ConcreteImplementorA</text><line style="stroke:#A80036;stroke-width:1.5;" x1="8" x2="165" y1="216.583" y2="216.583"/><line style="stroke:#A80036;stroke-width:1.5;" x1="8" x2="165" y1="224.583" y2="224.583"/><ellipse cx="18" cy="235.583" fill="#84BE84" rx="3" ry="3" style="stroke:#038048;stroke-width:1.0;"/><text fill="#000000" font-family="sans-serif" font-size="11" lengthAdjust="spacing" textLength="94" x="27" y="241.189">operationImpl() void</text><!--MD5=[bd088c92a4793931578a30b71322b932]
class ConcreteImplementorB--><rect codeLine="9" fill="#FEFECE" filter="url(#f112f8q7m02xka)" height="63.0229" id="ConcreteImplementorB" style="stroke:#A80036;stroke-width:1.5;" width="160" x="201.5" y="184.583"/><ellipse cx="216.5" cy="200.583" fill="#ADD1B2" rx="11" ry="11" style="stroke:#A80036;stroke-width:1.0;"/><path d="M215.0781,205.9424 Q213.2188,205.9424 212.125,204.5518 Q211.0313,203.1611 211.0313,200.1768 Q211.0313,197.6455 212.1953,195.9893 Q213.3594,194.333 215.3438,194.333 Q216.8125,194.333 217.2813,194.458 Q217.75,194.6611 217.75,194.6611 Q217.75,194.6611 217.75,194.5908 Q217.75,194.5205 218.3594,193.5986 L219.4063,197.2549 L218.0781,197.6611 Q217.6094,196.1143 216.9453,195.4502 Q216.2813,194.7861 215.2188,194.7861 Q214.8281,194.7861 214.0625,196.3174 Q213.2969,197.8486 213.2969,200.0986 Q213.2969,202.5674 213.9609,203.958 Q214.625,205.3486 215.1563,205.3486 Q216.2188,205.3486 216.9766,204.583 Q217.7344,203.8174 218.0781,202.1611 L219.4063,202.7549 Q219.0781,204.1611 218.1797,205.0518 Q217.2813,205.9424 215.0781,205.9424 Z " fill="#000000"/><text fill="#000000" font-family="sans-serif" font-size="12" lengthAdjust="spacing" textLength="128" x="230.5" y="206.1406">ConcreteImplementorB</text><line style="stroke:#A80036;stroke-width:1.5;" x1="202.5" x2="360.5" y1="216.583" y2="216.583"/><line style="stroke:#A80036;stroke-width:1.5;" x1="202.5" x2="360.5" y1="224.583" y2="224.583"/><ellipse cx="212.5" cy="235.583" fill="#84BE84" rx="3" ry="3" style="stroke:#038048;stroke-width:1.0;"/><text fill="#000000" font-family="sans-serif" font-size="11" lengthAdjust="spacing" textLength="94" x="221.5" y="241.189">operationImpl() void</text><!--MD5=[f60d79a4aa87a2085c828fe577d17b5a]
class Abstration--><rect codeLine="16" fill="#FEFECE" filter="url(#f112f8q7m02xka)" height="93.0688" id="Abstration" style="stroke:#A80036;stroke-width:1.5;" width="110" x="396.5" y="169.583"/><ellipse cx="421.85" cy="185.583" fill="#ADD1B2" rx="11" ry="11" style="stroke:#A80036;stroke-width:1.0;"/><path d="M420.4281,190.9424 Q418.5688,190.9424 417.475,189.5518 Q416.3813,188.1611 416.3813,185.1768 Q416.3813,182.6455 417.5453,180.9893 Q418.7094,179.333 420.6938,179.333 Q422.1625,179.333 422.6313,179.458 Q423.1,179.6611 423.1,179.6611 Q423.1,179.6611 423.1,179.5908 Q423.1,179.5205 423.7094,178.5986 L424.7563,182.2549 L423.4281,182.6611 Q422.9594,181.1143 422.2953,180.4502 Q421.6313,179.7861 420.5688,179.7861 Q420.1781,179.7861 419.4125,181.3174 Q418.6469,182.8486 418.6469,185.0986 Q418.6469,187.5674 419.3109,188.958 Q419.975,190.3486 420.5063,190.3486 Q421.5688,190.3486 422.3266,189.583 Q423.0844,188.8174 423.4281,187.1611 L424.7563,187.7549 Q424.4281,189.1611 423.5297,190.0518 Q422.6313,190.9424 420.4281,190.9424 Z " fill="#000000"/><text fill="#000000" font-family="sans-serif" font-size="12" lengthAdjust="spacing" textLength="55" x="438.15" y="191.1406">Abstration</text><line style="stroke:#A80036;stroke-width:1.5;" x1="397.5" x2="505.5" y1="201.583" y2="201.583"/><ellipse cx="407.5" cy="212.583" fill="none" rx="3" ry="3" style="stroke:#038048;stroke-width:1.0;"/><text fill="#000000" font-family="sans-serif" font-size="11" lengthAdjust="spacing" textLength="84" x="416.5" y="218.189">imple:Implementor</text><line style="stroke:#A80036;stroke-width:1.5;" x1="397.5" x2="505.5" y1="224.606" y2="224.606"/><ellipse cx="407.5" cy="235.606" fill="#84BE84" rx="3" ry="3" style="stroke:#038048;stroke-width:1.0;"/><text fill="#000000" font-family="sans-serif" font-size="11" lengthAdjust="spacing" textLength="58" x="416.5" y="241.2119">Abstration()</text><ellipse cx="407.5" cy="250.6289" fill="#84BE84" rx="3" ry="3" style="stroke:#038048;stroke-width:1.0;"/><text fill="#000000" font-family="sans-serif" font-size="11" lengthAdjust="spacing" textLength="76" x="416.5" y="256.2349">operation() void</text><!--MD5=[0c0cbe7be164e98f74839bebad9b0804]
class RefineAbstration--><rect codeLine="23" fill="#FEFECE" filter="url(#f112f8q7m02xka)" height="78.0459" id="RefineAbstration" style="stroke:#A80036;stroke-width:1.5;" width="129" x="387" y="31.583"/><ellipse cx="404.7" cy="47.583" fill="#ADD1B2" rx="11" ry="11" style="stroke:#A80036;stroke-width:1.0;"/><path d="M403.2781,52.9424 Q401.4188,52.9424 400.325,51.5518 Q399.2313,50.1611 399.2313,47.1768 Q399.2313,44.6455 400.3953,42.9893 Q401.5594,41.333 403.5438,41.333 Q405.0125,41.333 405.4813,41.458 Q405.95,41.6611 405.95,41.6611 Q405.95,41.6611 405.95,41.5908 Q405.95,41.5205 406.5594,40.5986 L407.6063,44.2549 L406.2781,44.6611 Q405.8094,43.1143 405.1453,42.4502 Q404.4813,41.7861 403.4188,41.7861 Q403.0281,41.7861 402.2625,43.3174 Q401.4969,44.8486 401.4969,47.0986 Q401.4969,49.5674 402.1609,50.958 Q402.825,52.3486 403.3563,52.3486 Q404.4188,52.3486 405.1766,51.583 Q405.9344,50.8174 406.2781,49.1611 L407.6063,49.7549 Q407.2781,51.1611 406.3797,52.0518 Q405.4813,52.9424 403.2781,52.9424 Z " fill="#000000"/><text fill="#000000" font-family="sans-serif" font-size="12" lengthAdjust="spacing" textLength="91" x="419.3" y="53.1406">RefineAbstration</text><line style="stroke:#A80036;stroke-width:1.5;" x1="388" x2="515" y1="63.583" y2="63.583"/><line style="stroke:#A80036;stroke-width:1.5;" x1="388" x2="515" y1="71.583" y2="71.583"/><ellipse cx="398" cy="82.583" fill="#84BE84" rx="3" ry="3" style="stroke:#038048;stroke-width:1.0;"/><text fill="#000000" font-family="sans-serif" font-size="11" lengthAdjust="spacing" textLength="89" x="407" y="88.189">RefineAbstration()</text><ellipse cx="398" cy="97.606" fill="#84BE84" rx="3" ry="3" style="stroke:#038048;stroke-width:1.0;"/><text fill="#000000" font-family="sans-serif" font-size="11" lengthAdjust="spacing" textLength="103" x="407" y="103.2119">otherOperation() void</text><!--MD5=[6027338d383722b6b69a315fc21ce523]
link ConcreteImplementorA to Implementor--><path codeLine="13" d="M130.26,247.603 C157.01,266.263 191.62,290.393 220.97,310.863 " fill="none" id="ConcreteImplementorA-to-Implementor" style="stroke:#A80036;stroke-width:1.0;stroke-dasharray:7.0,7.0;"/><polygon fill="none" points="225.15,305.243,237.55,322.433,217.14,316.733,225.15,305.243" style="stroke:#A80036;stroke-width:1.0;"/><!--MD5=[d14d792c24c0f43f0ca50f054bcbd553]
link ConcreteImplementorB to Implementor--><path codeLine="14" d="M281.5,247.603 C281.5,263.673 281.5,283.813 281.5,302.173 " fill="none" id="ConcreteImplementorB-to-Implementor" style="stroke:#A80036;stroke-width:1.0;stroke-dasharray:7.0,7.0;"/><polygon fill="none" points="288.5,302.193,281.5,322.193,274.5,302.193,288.5,302.193" style="stroke:#A80036;stroke-width:1.0;"/><!--MD5=[ad0a7a0a629efcd9c011b094c7f618ec]
link Abstration to Implementor--><path codeLine="21" d="M386.9409,268.741 C386.9409,268.741 347.53,300.263 330.2,314.123 " fill="none" id="Abstration-Implementor" style="stroke:#A80036;stroke-width:1.0;"/><polygon fill="#A80036" points="319.76,322.473,329.2845,319.9661,323.6617,319.3462,324.2815,313.7234,319.76,322.473" style="stroke:#A80036;stroke-width:1.0;"/><line style="stroke:#A80036;stroke-width:1.0;" x1="323.6617" x2="329.915" y1="319.3462" y2="314.353"/><polygon fill="#FFFFFF" points="396.31,261.243,389.1261,261.8689,386.9409,268.741,394.1247,268.115,396.31,261.243" style="stroke:#A80036;stroke-width:1.0;"/><!--MD5=[52245aac86c610757fee77fa96d81f42]
link RefineAbstration to Abstration--><path codeLine="27" d="M451.5,109.663 C451.5,121.843 451.5,135.713 451.5,149.283 " fill="none" id="RefineAbstration-to-Abstration" style="stroke:#A80036;stroke-width:1.0;"/><polygon fill="none" points="458.5,149.413,451.5,169.413,444.5,149.413,458.5,149.413" style="stroke:#A80036;stroke-width:1.0;"/><!--MD5=[dfd7c9f62ac3b67fceaa2d188ee11064]
@startuml bridge
title 桥接模式结构图

interface Implementor{
    +operationImpl() void
}
class ConcreteImplementorA{
    +operationImpl() void
}
class ConcreteImplementorB{
    +operationImpl() void
}

ConcreteImplementorA ..|> Implementor
ConcreteImplementorB ..|> Implementor

class Abstration{
    +imple:Implementor
    +Abstration()
    +operation() void
}
Abstration o- -> Implementor

Class RefineAbstration{
    +RefineAbstration()
    +otherOperation() void
}
RefineAbstration - -|> Abstration
@enduml

PlantUML version 1.2021.00(Sun Jan 10 18:25:05 CST 2021)
(GPL source distribution)
Java Runtime: Java(TM) SE Runtime Environment
JVM: Java HotSpot(TM) 64-Bit Server VM
Default Encoding: GBK
Language: zh
Country: CN
--></g></svg>