<?xml version="1.0" encoding="UTF-8" standalone="no"?><svg xmlns="http://www.w3.org/2000/svg" xmlns:xlink="http://www.w3.org/1999/xlink" contentScriptType="application/ecmascript" contentStyleType="text/css" height="477px" preserveAspectRatio="none" style="width:422px;height:477px;" version="1.1" viewBox="0 0 422 477" width="422px" zoomAndPan="magnify"><defs><filter height="300%" id="f80jnrmeosnxa" width="300%" x="-1" y="-1"><feGaussianBlur result="blurOut" stdDeviation="2.0"/><feColorMatrix in="blurOut" result="blurOut2" type="matrix" values="0 0 0 0 0 0 0 0 0 0 0 0 0 0 0 0 0 0 .4 0"/><feOffset dx="4.0" dy="4.0" in="blurOut2" result="blurOut3"/><feBlend in="SourceGraphic" in2="blurOut3" mode="normal"/></filter></defs><g><text fill="#000000" font-family="sans-serif" font-size="18" lengthAdjust="spacing" textLength="126" x="141.91" y="20.6279">简单工厂结构图</text><!--MD5=[d0eeb360c93230f40a372f310f64b160]
class ImplA--><rect codeLine="2" fill="#FEFECE" filter="url(#f80jnrmeosnxa)" height="63.0229" id="ImplA" style="stroke:#A80036;stroke-width:1.5;" width="139" x="70.79" y="277.583"/><ellipse cx="120.54" cy="293.583" fill="#ADD1B2" rx="11" ry="11" style="stroke:#A80036;stroke-width:1.0;"/><path d="M119.1181,298.9424 Q117.2587,298.9424 116.165,297.5518 Q115.0712,296.1611 115.0712,293.1768 Q115.0712,290.6455 116.2353,288.9893 Q117.3994,287.333 119.3837,287.333 Q120.8525,287.333 121.3212,287.458 Q121.79,287.6611 121.79,287.6611 Q121.79,287.6611 121.79,287.5908 Q121.79,287.5205 122.3994,286.5986 L123.4462,290.2549 L122.1181,290.6611 Q121.6494,289.1143 120.9853,288.4502 Q120.3212,287.7861 119.2587,287.7861 Q118.8681,287.7861 118.1025,289.3174 Q117.3369,290.8486 117.3369,293.0986 Q117.3369,295.5674 118.0009,296.958 Q118.665,298.3486 119.1962,298.3486 Q120.2587,298.3486 121.0166,297.583 Q121.7744,296.8174 122.1181,295.1611 L123.4462,295.7549 Q123.1181,297.1611 122.2197,298.0518 Q121.3212,298.9424 119.1181,298.9424 Z " fill="#000000"/><text fill="#000000" font-family="sans-serif" font-size="12" lengthAdjust="spacing" textLength="31" x="141.04" y="299.1406">ImplA</text><line style="stroke:#A80036;stroke-width:1.5;" x1="71.79" x2="208.79" y1="309.583" y2="309.583"/><line style="stroke:#A80036;stroke-width:1.5;" x1="71.79" x2="208.79" y1="317.583" y2="317.583"/><ellipse cx="81.79" cy="328.583" fill="#84BE84" rx="3" ry="3" style="stroke:#038048;stroke-width:1.0;"/><text fill="#000000" font-family="sans-serif" font-size="11" lengthAdjust="spacing" textLength="113" x="90.79" y="334.189">operation(s:String) void</text><!--MD5=[44dea7237d6d6925a114feadf3890b9b]
class ImplB--><rect codeLine="5" fill="#FEFECE" filter="url(#f80jnrmeosnxa)" height="63.0229" id="ImplB" style="stroke:#A80036;stroke-width:1.5;" width="139" x="244.79" y="277.583"/><ellipse cx="294.04" cy="293.583" fill="#ADD1B2" rx="11" ry="11" style="stroke:#A80036;stroke-width:1.0;"/><path d="M292.6181,298.9424 Q290.7587,298.9424 289.665,297.5518 Q288.5712,296.1611 288.5712,293.1768 Q288.5712,290.6455 289.7353,288.9893 Q290.8994,287.333 292.8837,287.333 Q294.3525,287.333 294.8212,287.458 Q295.29,287.6611 295.29,287.6611 Q295.29,287.6611 295.29,287.5908 Q295.29,287.5205 295.8994,286.5986 L296.9462,290.2549 L295.6181,290.6611 Q295.1494,289.1143 294.4853,288.4502 Q293.8212,287.7861 292.7587,287.7861 Q292.3681,287.7861 291.6025,289.3174 Q290.8369,290.8486 290.8369,293.0986 Q290.8369,295.5674 291.5009,296.958 Q292.165,298.3486 292.6962,298.3486 Q293.7587,298.3486 294.5166,297.583 Q295.2744,296.8174 295.6181,295.1611 L296.9462,295.7549 Q296.6181,297.1611 295.7197,298.0518 Q294.8212,298.9424 292.6181,298.9424 Z " fill="#000000"/><text fill="#000000" font-family="sans-serif" font-size="12" lengthAdjust="spacing" textLength="32" x="314.54" y="299.1406">ImplB</text><line style="stroke:#A80036;stroke-width:1.5;" x1="245.79" x2="382.79" y1="309.583" y2="309.583"/><line style="stroke:#A80036;stroke-width:1.5;" x1="245.79" x2="382.79" y1="317.583" y2="317.583"/><ellipse cx="255.79" cy="328.583" fill="#84BE84" rx="3" ry="3" style="stroke:#038048;stroke-width:1.0;"/><text fill="#000000" font-family="sans-serif" font-size="11" lengthAdjust="spacing" textLength="113" x="264.79" y="334.189">operation(s:String) void</text><!--MD5=[7923f0ef83cfa7fc76aa895bd44f4146]
class Api--><rect codeLine="8" fill="#FEFECE" filter="url(#f80jnrmeosnxa)" height="63.0229" id="Api" style="stroke:#A80036;stroke-width:1.5;" width="139" x="157.79" y="400.583"/><ellipse cx="214.04" cy="416.583" fill="#B4A7E5" rx="11" ry="11" style="stroke:#A80036;stroke-width:1.0;"/><path d="M210.6338,410.8643 L210.6338,410.458 L216.9463,410.458 L216.9463,410.8643 L214.415,410.8643 Q214.415,410.8643 214.5634,410.9971 Q214.7119,411.1299 214.7119,411.3955 L214.7119,420.8799 Q214.7119,421.1455 214.9306,421.2783 Q215.1494,421.4111 215.1494,421.4111 L216.9463,421.4111 L216.9463,421.8174 L210.6338,421.8174 L210.6338,421.4111 L212.165,421.4111 Q212.4931,421.4111 212.6259,421.2783 Q212.7588,421.1455 212.7588,420.8799 L212.7588,411.3955 Q212.7588,411.1299 212.6259,410.9971 Q212.4931,410.8643 212.165,410.8643 L210.6338,410.8643 Z " fill="#000000"/><text fill="#000000" font-family="sans-serif" font-size="12" font-style="italic" lengthAdjust="spacing" textLength="18" x="234.54" y="422.1406">Api</text><line style="stroke:#A80036;stroke-width:1.5;" x1="158.79" x2="295.79" y1="432.583" y2="432.583"/><line style="stroke:#A80036;stroke-width:1.5;" x1="158.79" x2="295.79" y1="440.583" y2="440.583"/><ellipse cx="168.79" cy="451.583" fill="#84BE84" rx="3" ry="3" style="stroke:#038048;stroke-width:1.0;"/><text fill="#000000" font-family="sans-serif" font-size="11" lengthAdjust="spacing" textLength="113" x="177.79" y="457.189">operation(s:String) void</text><!--MD5=[dcda66dabdb739ec36f1175150e3c9d5]
class Factory--><rect codeLine="11" fill="#FEFECE" filter="url(#f80jnrmeosnxa)" height="63.0229" id="Factory" style="stroke:#A80036;stroke-width:1.5;" width="141" x="156.79" y="154.583"/><ellipse cx="203.54" cy="170.583" fill="#ADD1B2" rx="11" ry="11" style="stroke:#A80036;stroke-width:1.0;"/><path d="M202.1181,175.9424 Q200.2588,175.9424 199.165,174.5518 Q198.0713,173.1611 198.0713,170.1768 Q198.0713,167.6455 199.2353,165.9893 Q200.3994,164.333 202.3838,164.333 Q203.8525,164.333 204.3213,164.458 Q204.79,164.6611 204.79,164.6611 Q204.79,164.6611 204.79,164.5908 Q204.79,164.5205 205.3994,163.5986 L206.4463,167.2549 L205.1181,167.6611 Q204.6494,166.1143 203.9853,165.4502 Q203.3213,164.7861 202.2588,164.7861 Q201.8681,164.7861 201.1025,166.3174 Q200.3369,167.8486 200.3369,170.0986 Q200.3369,172.5674 201.0009,173.958 Q201.665,175.3486 202.1963,175.3486 Q203.2588,175.3486 204.0166,174.583 Q204.7744,173.8174 205.1181,172.1611 L206.4463,172.7549 Q206.1181,174.1611 205.2197,175.0518 Q204.3213,175.9424 202.1181,175.9424 Z " fill="#000000"/><text fill="#000000" font-family="sans-serif" font-size="12" lengthAdjust="spacing" textLength="39" x="224.04" y="176.1406">Factory</text><line style="stroke:#A80036;stroke-width:1.5;" x1="157.79" x2="296.79" y1="186.583" y2="186.583"/><line style="stroke:#A80036;stroke-width:1.5;" x1="157.79" x2="296.79" y1="194.583" y2="194.583"/><ellipse cx="167.79" cy="205.583" fill="#84BE84" rx="3" ry="3" style="stroke:#038048;stroke-width:1.0;"/><text fill="#000000" font-family="sans-serif" font-size="11" lengthAdjust="spacing" textLength="115" x="176.79" y="211.189">create(condition:int) Api</text><!--MD5=[ed6624c6556d5e7b1bd23032162d20b7]
class Client--><rect codeLine="14" fill="#FEFECE" filter="url(#f80jnrmeosnxa)" height="63.0229" id="Client" style="stroke:#A80036;stroke-width:1.5;" width="138" x="10.29" y="31.583"/><ellipse cx="59.04" cy="47.583" fill="#ADD1B2" rx="11" ry="11" style="stroke:#A80036;stroke-width:1.0;"/><path d="M57.6181,52.9424 Q55.7588,52.9424 54.665,51.5518 Q53.5713,50.1611 53.5713,47.1768 Q53.5713,44.6455 54.7353,42.9893 Q55.8994,41.333 57.8838,41.333 Q59.3525,41.333 59.8213,41.458 Q60.29,41.6611 60.29,41.6611 Q60.29,41.6611 60.29,41.5908 Q60.29,41.5205 60.8994,40.5986 L61.9463,44.2549 L60.6181,44.6611 Q60.1494,43.1143 59.4853,42.4502 Q58.8213,41.7861 57.7588,41.7861 Q57.3681,41.7861 56.6025,43.3174 Q55.8369,44.8486 55.8369,47.0986 Q55.8369,49.5674 56.5009,50.958 Q57.165,52.3486 57.6963,52.3486 Q58.7588,52.3486 59.5166,51.583 Q60.2744,50.8174 60.6181,49.1611 L61.9463,49.7549 Q61.6181,51.1611 60.7197,52.0518 Q59.8213,52.9424 57.6181,52.9424 Z " fill="#000000"/><text fill="#000000" font-family="sans-serif" font-size="12" lengthAdjust="spacing" textLength="32" x="79.54" y="53.1406">Client</text><line style="stroke:#A80036;stroke-width:1.5;" x1="11.29" x2="147.29" y1="63.583" y2="63.583"/><line style="stroke:#A80036;stroke-width:1.5;" x1="11.29" x2="147.29" y1="71.583" y2="71.583"/><ellipse cx="21.29" cy="82.583" fill="#84BE84" rx="3" ry="3" style="stroke:#038048;stroke-width:1.0;"/><text fill="#000000" font-family="sans-serif" font-size="11" lengthAdjust="spacing" textLength="112" x="30.29" y="88.189">main(args:String[]) void</text><!--MD5=[5f4db2a88effbb3d0e8358608b00214a]
link Client to Api--><path codeLine="19" d="M65.16,94.983 C42.71,149.103 6,262.683 53.29,340.583 C75.02,376.373 116.03,398.663 152.77,412.163 " fill="none" id="Client-to-Api" style="stroke:#A80036;stroke-width:1.0;"/><polygon fill="#A80036" points="157.7,413.933,150.5723,407.1363,152.9919,412.2495,147.8787,414.6692,157.7,413.933" style="stroke:#A80036;stroke-width:1.0;"/><!--MD5=[acb2335de36b06223ae1cf05587a0664]
link Client to Factory--><path codeLine="20" d="M116.64,94.613 C137.76,111.883 164.21,133.513 185.95,151.283 " fill="none" id="Client-to-Factory" style="stroke:#A80036;stroke-width:1.0;stroke-dasharray:7.0,7.0;"/><polygon fill="#A80036" points="189.96,154.563,185.5132,145.7752,186.0851,151.4031,180.4573,151.975,189.96,154.563" style="stroke:#A80036;stroke-width:1.0;"/><!--MD5=[fddde895ba8ada0e2b303f03018ad9a7]
link Factory to Api--><path codeLine="21" d="M298.22,204.703 C335.85,218.053 378.85,240.613 401.29,277.583 C415.82,301.513 415.82,316.653 401.29,340.583 C379.56,376.373 338.55,398.663 301.81,412.163 " fill="none" id="Factory-to-Api" style="stroke:#A80036;stroke-width:1.0;stroke-dasharray:7.0,7.0;"/><polygon fill="#A80036" points="296.88,413.933,306.7013,414.6692,301.5881,412.2495,304.0077,407.1363,296.88,413.933" style="stroke:#A80036;stroke-width:1.0;"/><!--MD5=[d93c2d6d0d1d74656d9854fe03ef9035]
link Factory to ImplA--><path codeLine="22" d="M205.34,217.613 C193.18,234.523 178.02,255.613 165.39,273.173 " fill="none" id="Factory-to-ImplA" style="stroke:#A80036;stroke-width:1.0;stroke-dasharray:7.0,7.0;"/><polygon fill="#A80036" points="162.24,277.563,170.731,272.5728,165.1502,273.4972,164.2258,267.9164,162.24,277.563" style="stroke:#A80036;stroke-width:1.0;"/><!--MD5=[2ecc3b7e4796914a8d8e2d758889ec13]
link Factory to ImplB--><path codeLine="23" d="M249.24,217.613 C261.4,234.523 276.56,255.613 289.19,273.173 " fill="none" id="Factory-to-ImplB" style="stroke:#A80036;stroke-width:1.0;stroke-dasharray:7.0,7.0;"/><polygon fill="#A80036" points="292.34,277.563,290.3542,267.9164,289.4298,273.4972,283.849,272.5728,292.34,277.563" style="stroke:#A80036;stroke-width:1.0;"/><!--MD5=[58d102a6dc473fdfd3c1533d5b2dc88b]
link ImplA to Api--><path codeLine="24" d="M162.24,340.613 C171.72,353.803 183.03,369.523 193.53,384.133 " fill="none" id="ImplA-to-Api" style="stroke:#A80036;stroke-width:1.0;"/><polygon fill="none" points="199.35,380.233,205.34,400.563,187.98,388.403,199.35,380.233" style="stroke:#A80036;stroke-width:1.0;"/><!--MD5=[4aeea0f41a5d40b503afd786b4a2b2bc]
link ImplB to Api--><path codeLine="25" d="M292.34,340.613 C282.86,353.803 271.55,369.523 261.05,384.133 " fill="none" id="ImplB-to-Api" style="stroke:#A80036;stroke-width:1.0;"/><polygon fill="none" points="266.6,388.403,249.24,400.563,255.23,380.233,266.6,388.403" style="stroke:#A80036;stroke-width:1.0;"/><!--MD5=[568dcbc6a1828af31b8bcab6156040f9]
@startuml simlefactory
title 简单工厂结构图
class ImplA{
    +operation(s:String) void
}
class ImplB{
    +operation(s:String) void
}
interface Api{
    +operation(s:String) void
}
class Factory{
    +create(condition:int) Api
}
class Client{
    +main(args:String[]) void
}


Client - -> Api
Client ..> Factory
Factory ..> Api
Factory ..> ImplA
Factory ..> ImplB
ImplA - -|> Api
ImplB - -|> Api

@enduml

PlantUML version 1.2021.00(Sun Jan 10 18:25:05 CST 2021)
(GPL source distribution)
Java Runtime: Java(TM) SE Runtime Environment
JVM: Java HotSpot(TM) 64-Bit Server VM
Default Encoding: GBK
Language: zh
Country: CN
--></g></svg>