<?xml version="1.0" encoding="UTF-8" standalone="no"?><svg xmlns="http://www.w3.org/2000/svg" xmlns:xlink="http://www.w3.org/1999/xlink" contentScriptType="application/ecmascript" contentStyleType="text/css" height="384px" preserveAspectRatio="none" style="width:347px;height:384px;" version="1.1" viewBox="0 0 347 384" width="347px" zoomAndPan="magnify"><defs><filter height="300%" id="f19ebdtozapzwa" width="300%" x="-1" y="-1"><feGaussianBlur result="blurOut" stdDeviation="2.0"/><feColorMatrix in="blurOut" result="blurOut2" type="matrix" values="0 0 0 0 0 0 0 0 0 0 0 0 0 0 0 0 0 0 .4 0"/><feOffset dx="4.0" dy="4.0" in="blurOut2" result="blurOut3"/><feBlend in="SourceGraphic" in2="blurOut3" mode="normal"/></filter></defs><g><text fill="#000000" font-family="sans-serif" font-size="18" lengthAdjust="spacing" textLength="72" x="131" y="20.6279">代理模式</text><!--MD5=[ed6624c6556d5e7b1bd23032162d20b7]
class Client--><rect codeLine="4" fill="#FEFECE" filter="url(#f19ebdtozapzwa)" height="48" id="Client" style="stroke:#A80036;stroke-width:1.5;" width="64" x="22" y="192.083"/><ellipse cx="37" cy="208.083" fill="#ADD1B2" rx="11" ry="11" style="stroke:#A80036;stroke-width:1.0;"/><path d="M35.5781,213.4424 Q33.7188,213.4424 32.625,212.0518 Q31.5313,210.6611 31.5313,207.6768 Q31.5313,205.1455 32.6953,203.4893 Q33.8594,201.833 35.8438,201.833 Q37.3125,201.833 37.7813,201.958 Q38.25,202.1611 38.25,202.1611 Q38.25,202.1611 38.25,202.0908 Q38.25,202.0205 38.8594,201.0986 L39.9063,204.7549 L38.5781,205.1611 Q38.1094,203.6143 37.4453,202.9502 Q36.7813,202.2861 35.7188,202.2861 Q35.3281,202.2861 34.5625,203.8174 Q33.7969,205.3486 33.7969,207.5986 Q33.7969,210.0674 34.4609,211.458 Q35.125,212.8486 35.6563,212.8486 Q36.7188,212.8486 37.4766,212.083 Q38.2344,211.3174 38.5781,209.6611 L39.9063,210.2549 Q39.5781,211.6611 38.6797,212.5518 Q37.7813,213.4424 35.5781,213.4424 Z " fill="#000000"/><text fill="#000000" font-family="sans-serif" font-size="12" lengthAdjust="spacing" textLength="32" x="51" y="213.6406">Client</text><line style="stroke:#A80036;stroke-width:1.5;" x1="23" x2="85" y1="224.083" y2="224.083"/><line style="stroke:#A80036;stroke-width:1.5;" x1="23" x2="85" y1="232.083" y2="232.083"/><!--MD5=[d0da0a299942266ebd64acf2b2e95fa4]
class Subject--><rect codeLine="5" fill="#FEFECE" filter="url(#f19ebdtozapzwa)" height="63.0229" id="Subject" style="stroke:#A80036;stroke-width:1.5;" width="94" x="7" y="307.583"/><ellipse cx="31" cy="323.583" fill="#B4A7E5" rx="11" ry="11" style="stroke:#A80036;stroke-width:1.0;"/><path d="M27.5938,317.8643 L27.5938,317.458 L33.9063,317.458 L33.9063,317.8643 L31.375,317.8643 Q31.375,317.8643 31.5234,317.9971 Q31.6719,318.1299 31.6719,318.3955 L31.6719,327.8799 Q31.6719,328.1455 31.8906,328.2783 Q32.1094,328.4111 32.1094,328.4111 L33.9063,328.4111 L33.9063,328.8174 L27.5938,328.8174 L27.5938,328.4111 L29.125,328.4111 Q29.4531,328.4111 29.5859,328.2783 Q29.7188,328.1455 29.7188,327.8799 L29.7188,318.3955 Q29.7188,318.1299 29.5859,317.9971 Q29.4531,317.8643 29.125,317.8643 L27.5938,317.8643 Z " fill="#000000"/><text fill="#000000" font-family="sans-serif" font-size="12" font-style="italic" lengthAdjust="spacing" textLength="42" x="47" y="329.1406">Subject</text><line style="stroke:#A80036;stroke-width:1.5;" x1="8" x2="100" y1="339.583" y2="339.583"/><line style="stroke:#A80036;stroke-width:1.5;" x1="8" x2="100" y1="347.583" y2="347.583"/><ellipse cx="18" cy="358.583" fill="#84BE84" rx="3" ry="3" style="stroke:#038048;stroke-width:1.0;"/><text fill="#000000" font-family="sans-serif" font-size="11" lengthAdjust="spacing" textLength="68" x="27" y="364.189">request() void</text><!--MD5=[449b3045b33c31979c3bb324a2b48d70]
class RealSubject--><rect codeLine="10" fill="#FEFECE" filter="url(#f19ebdtozapzwa)" height="63.0229" id="RealSubject" style="stroke:#A80036;stroke-width:1.5;" width="99" x="157.5" y="184.583"/><ellipse cx="172.5" cy="200.583" fill="#ADD1B2" rx="11" ry="11" style="stroke:#A80036;stroke-width:1.0;"/><path d="M171.0781,205.9424 Q169.2188,205.9424 168.125,204.5518 Q167.0313,203.1611 167.0313,200.1768 Q167.0313,197.6455 168.1953,195.9893 Q169.3594,194.333 171.3438,194.333 Q172.8125,194.333 173.2813,194.458 Q173.75,194.6611 173.75,194.6611 Q173.75,194.6611 173.75,194.5908 Q173.75,194.5205 174.3594,193.5986 L175.4063,197.2549 L174.0781,197.6611 Q173.6094,196.1143 172.9453,195.4502 Q172.2813,194.7861 171.2188,194.7861 Q170.8281,194.7861 170.0625,196.3174 Q169.2969,197.8486 169.2969,200.0986 Q169.2969,202.5674 169.9609,203.958 Q170.625,205.3486 171.1563,205.3486 Q172.2188,205.3486 172.9766,204.583 Q173.7344,203.8174 174.0781,202.1611 L175.4063,202.7549 Q175.0781,204.1611 174.1797,205.0518 Q173.2813,205.9424 171.0781,205.9424 Z " fill="#000000"/><text fill="#000000" font-family="sans-serif" font-size="12" lengthAdjust="spacing" textLength="67" x="186.5" y="206.1406">RealSubject</text><line style="stroke:#A80036;stroke-width:1.5;" x1="158.5" x2="255.5" y1="216.583" y2="216.583"/><line style="stroke:#A80036;stroke-width:1.5;" x1="158.5" x2="255.5" y1="224.583" y2="224.583"/><ellipse cx="168.5" cy="235.583" fill="#84BE84" rx="3" ry="3" style="stroke:#038048;stroke-width:1.0;"/><text fill="#000000" font-family="sans-serif" font-size="11" lengthAdjust="spacing" textLength="68" x="177.5" y="241.189">request() void</text><!--MD5=[f7109e258b7e3e4bb390e34b115b99ce]
class Proxy--><rect codeLine="13" fill="#FEFECE" filter="url(#f19ebdtozapzwa)" height="93.0688" id="Proxy" style="stroke:#A80036;stroke-width:1.5;" width="176" x="157" y="31.583"/><ellipse cx="226.25" cy="47.583" fill="#ADD1B2" rx="11" ry="11" style="stroke:#A80036;stroke-width:1.0;"/><path d="M224.8281,52.9424 Q222.9688,52.9424 221.875,51.5518 Q220.7813,50.1611 220.7813,47.1768 Q220.7813,44.6455 221.9453,42.9893 Q223.1094,41.333 225.0938,41.333 Q226.5625,41.333 227.0313,41.458 Q227.5,41.6611 227.5,41.6611 Q227.5,41.6611 227.5,41.5908 Q227.5,41.5205 228.1094,40.5986 L229.1563,44.2549 L227.8281,44.6611 Q227.3594,43.1143 226.6953,42.4502 Q226.0313,41.7861 224.9688,41.7861 Q224.5781,41.7861 223.8125,43.3174 Q223.0469,44.8486 223.0469,47.0986 Q223.0469,49.5674 223.7109,50.958 Q224.375,52.3486 224.9063,52.3486 Q225.9688,52.3486 226.7266,51.583 Q227.4844,50.8174 227.8281,49.1611 L229.1563,49.7549 Q228.8281,51.1611 227.9297,52.0518 Q227.0313,52.9424 224.8281,52.9424 Z " fill="#000000"/><text fill="#000000" font-family="sans-serif" font-size="12" lengthAdjust="spacing" textLength="29" x="246.75" y="53.1406">Proxy</text><line style="stroke:#A80036;stroke-width:1.5;" x1="158" x2="332" y1="63.583" y2="63.583"/><rect fill="none" height="6" style="stroke:#C82930;stroke-width:1.0;" width="6" x="165" y="71.583"/><text fill="#000000" font-family="sans-serif" font-size="11" lengthAdjust="spacing" textLength="136" x="177" y="80.189">realSubject:RealSubject=null</text><line style="stroke:#A80036;stroke-width:1.5;" x1="158" x2="332" y1="86.606" y2="86.606"/><ellipse cx="168" cy="97.606" fill="#84BE84" rx="3" ry="3" style="stroke:#038048;stroke-width:1.0;"/><text fill="#000000" font-family="sans-serif" font-size="11" lengthAdjust="spacing" textLength="150" x="177" y="103.2119">Proxy(realSubject:RealSubject)</text><ellipse cx="168" cy="112.6289" fill="#84BE84" rx="3" ry="3" style="stroke:#038048;stroke-width:1.0;"/><text fill="#000000" font-family="sans-serif" font-size="11" lengthAdjust="spacing" textLength="68" x="177" y="118.2349">request() void</text><!--MD5=[9ac177fefad293b327de6edb7bef718c]
link Client to Subject--><path codeLine="19" d="M54,240.123 C54,257.703 54,282.223 54,302.333 " fill="none" id="Client-to-Subject" style="stroke:#A80036;stroke-width:1.0;stroke-dasharray:7.0,7.0;"/><polygon fill="#A80036" points="54,307.343,58,298.343,54,302.343,50,298.343,54,307.343" style="stroke:#A80036;stroke-width:1.0;"/><!--MD5=[b280a16370783ac0badcb56b810c08c6]
link RealSubject to Subject--><path codeLine="20" d="M168.39,247.613 C150.27,261.943 128.36,279.273 108.58,294.923 " fill="none" id="RealSubject-to-Subject" style="stroke:#A80036;stroke-width:1.0;"/><polygon fill="none" points="112.63,300.643,92.6,307.563,103.94,289.663,112.63,300.643" style="stroke:#A80036;stroke-width:1.0;"/><!--MD5=[5997160807364bdd25f39226526130dd]
link Proxy to Subject--><path codeLine="21" d="M269.2,124.873 C287.78,167.033 305.43,229.253 274,271.583 C255.56,296.423 178.72,315.573 121.01,326.813 " fill="none" id="Proxy-to-Subject" style="stroke:#A80036;stroke-width:1.0;"/><polygon fill="none" points="122.08,333.733,101.14,330.523,119.51,319.973,122.08,333.733" style="stroke:#A80036;stroke-width:1.0;"/><!--MD5=[49bea103da680686eb3e0dd80746fb38]
link Proxy to RealSubject--><path codeLine="22" d="M230.81,129.853 C226.22,146.303 221.22,164.183 217,179.303 " fill="none" id="Proxy-RealSubject" style="stroke:#A80036;stroke-width:1.0;"/><polygon fill="#A80036" points="215.6,184.313,221.871,176.7186,216.9434,179.4969,214.1652,174.5692,215.6,184.313" style="stroke:#A80036;stroke-width:1.0;"/><path d="M227.0437,128.4845 L232.6001,138.3397 M234.7495,130.6339 L224.8943,136.1903 " fill="none" style="stroke:#A80036;stroke-width:1.0;"/><!--MD5=[45066258c655982738522eff3df48385]
@startuml proxy
title 代理模式

together {
    class Client{}
    interface Subject {
        +request() void
    }
}
together {
    class RealSubject {
        +request() void
    }
    class Proxy {
        -realSubject:RealSubject=null
        +Proxy(realSubject:RealSubject)
        +request() void
    }
}
Client ..> Subject
RealSubject - -|> Subject
Proxy - -|> Subject
Proxy x- -> RealSubject
@enduml

PlantUML version 1.2021.00(Sun Jan 10 18:25:05 CST 2021)
(GPL source distribution)
Java Runtime: Java(TM) SE Runtime Environment
JVM: Java HotSpot(TM) 64-Bit Server VM
Default Encoding: GBK
Language: zh
Country: CN
--></g></svg>