<?xml version="1.0" encoding="UTF-8" standalone="no"?><svg xmlns="http://www.w3.org/2000/svg" xmlns:xlink="http://www.w3.org/1999/xlink" contentScriptType="application/ecmascript" contentStyleType="text/css" height="429px" preserveAspectRatio="none" style="width:506px;height:429px;" version="1.1" viewBox="0 0 506 429" width="506px" zoomAndPan="magnify"><defs><filter height="300%" id="fzzqgg9lmh7p4" width="300%" x="-1" y="-1"><feGaussianBlur result="blurOut" stdDeviation="2.0"/><feColorMatrix in="blurOut" result="blurOut2" type="matrix" values="0 0 0 0 0 0 0 0 0 0 0 0 0 0 0 0 0 0 .4 0"/><feOffset dx="4.0" dy="4.0" in="blurOut2" result="blurOut3"/><feBlend in="SourceGraphic" in2="blurOut3" mode="normal"/></filter></defs><g><text fill="#000000" font-family="sans-serif" font-size="18" lengthAdjust="spacing" textLength="90" x="201.75" y="20.6279">中介者模式</text><!--MD5=[7bc5716ff34e8b57d97376709b158217]
class Mediator--><rect codeLine="3" fill="#FEFECE" filter="url(#fzzqgg9lmh7p4)" height="63.0229" id="Mediator" style="stroke:#A80036;stroke-width:1.5;" width="122" x="7" y="222.083"/><ellipse cx="41.35" cy="238.083" fill="#B4A7E5" rx="11" ry="11" style="stroke:#A80036;stroke-width:1.0;"/><path d="M37.9438,232.3643 L37.9438,231.958 L44.2563,231.958 L44.2563,232.3643 L41.725,232.3643 Q41.725,232.3643 41.8734,232.4971 Q42.0219,232.6299 42.0219,232.8955 L42.0219,242.3799 Q42.0219,242.6455 42.2406,242.7783 Q42.4594,242.9111 42.4594,242.9111 L44.2563,242.9111 L44.2563,243.3174 L37.9438,243.3174 L37.9438,242.9111 L39.475,242.9111 Q39.8031,242.9111 39.9359,242.7783 Q40.0688,242.6455 40.0688,242.3799 L40.0688,232.8955 Q40.0688,232.6299 39.9359,232.4971 Q39.8031,232.3643 39.475,232.3643 L37.9438,232.3643 Z " fill="#000000"/><text fill="#000000" font-family="sans-serif" font-size="12" font-style="italic" lengthAdjust="spacing" textLength="47" x="59.65" y="243.6406">Mediator</text><line style="stroke:#A80036;stroke-width:1.5;" x1="8" x2="128" y1="254.083" y2="254.083"/><line style="stroke:#A80036;stroke-width:1.5;" x1="8" x2="128" y1="262.083" y2="262.083"/><ellipse cx="18" cy="273.083" fill="#84BE84" rx="3" ry="3" style="stroke:#038048;stroke-width:1.0;"/><text fill="#000000" font-family="sans-serif" font-size="11" lengthAdjust="spacing" textLength="96" x="27" y="278.689">changed(colleague)</text><!--MD5=[57b036fc3adc6f308410e06146624c7b]
class ConcreteMediator--><rect codeLine="7" fill="#FEFECE" filter="url(#fzzqgg9lmh7p4)" height="123.1147" id="ConcreteMediator" style="stroke:#A80036;stroke-width:1.5;" width="217" x="128.5" y="31.583"/><ellipse cx="184.25" cy="47.583" fill="#ADD1B2" rx="11" ry="11" style="stroke:#A80036;stroke-width:1.0;"/><path d="M182.8281,52.9424 Q180.9688,52.9424 179.875,51.5518 Q178.7813,50.1611 178.7813,47.1768 Q178.7813,44.6455 179.9453,42.9893 Q181.1094,41.333 183.0938,41.333 Q184.5625,41.333 185.0313,41.458 Q185.5,41.6611 185.5,41.6611 Q185.5,41.6611 185.5,41.5908 Q185.5,41.5205 186.1094,40.5986 L187.1563,44.2549 L185.8281,44.6611 Q185.3594,43.1143 184.6953,42.4502 Q184.0313,41.7861 182.9688,41.7861 Q182.5781,41.7861 181.8125,43.3174 Q181.0469,44.8486 181.0469,47.0986 Q181.0469,49.5674 181.7109,50.958 Q182.375,52.3486 182.9063,52.3486 Q183.9688,52.3486 184.7266,51.583 Q185.4844,50.8174 185.8281,49.1611 L187.1563,49.7549 Q186.8281,51.1611 185.9297,52.0518 Q185.0313,52.9424 182.8281,52.9424 Z " fill="#000000"/><text fill="#000000" font-family="sans-serif" font-size="12" lengthAdjust="spacing" textLength="97" x="204.75" y="53.1406">ConcreteMediator</text><line style="stroke:#A80036;stroke-width:1.5;" x1="129.5" x2="344.5" y1="63.583" y2="63.583"/><rect fill="none" height="6" style="stroke:#C82930;stroke-width:1.0;" width="6" x="136.5" y="71.583"/><text fill="#000000" font-family="sans-serif" font-size="11" lengthAdjust="spacing" textLength="98" x="148.5" y="80.189">concreteColleagueA</text><rect fill="none" height="6" style="stroke:#C82930;stroke-width:1.0;" width="6" x="136.5" y="86.606"/><text fill="#000000" font-family="sans-serif" font-size="11" lengthAdjust="spacing" textLength="98" x="148.5" y="95.2119">concreteColleagueA</text><line style="stroke:#A80036;stroke-width:1.5;" x1="129.5" x2="344.5" y1="101.6289" y2="101.6289"/><ellipse cx="139.5" cy="112.6289" fill="#84BE84" rx="3" ry="3" style="stroke:#038048;stroke-width:1.0;"/><text fill="#000000" font-family="sans-serif" font-size="11" lengthAdjust="spacing" textLength="119" x="148.5" y="118.2349">changed(colleague) void</text><ellipse cx="139.5" cy="127.6519" fill="#84BE84" rx="3" ry="3" style="stroke:#038048;stroke-width:1.0;"/><text fill="#000000" font-family="sans-serif" font-size="11" lengthAdjust="spacing" textLength="191" x="148.5" y="133.2578">setConcreteColleagueA(colleague) void</text><ellipse cx="139.5" cy="142.6748" fill="#84BE84" rx="3" ry="3" style="stroke:#038048;stroke-width:1.0;"/><text fill="#000000" font-family="sans-serif" font-size="11" lengthAdjust="spacing" textLength="190" x="148.5" y="148.2808">setConcreteColleagueB(colleague) void</text><!--MD5=[dce1c4a99d6d78320dbd9395e5caa416]
class Colleague--><rect codeLine="15" fill="#FEFECE" filter="url(#fzzqgg9lmh7p4)" height="63.0229" id="Colleague" style="stroke:#A80036;stroke-width:1.5;" width="114" x="180" y="352.583"/><ellipse cx="206.25" cy="368.583" fill="#ADD1B2" rx="11" ry="11" style="stroke:#A80036;stroke-width:1.0;"/><path d="M204.8281,373.9424 Q202.9688,373.9424 201.875,372.5518 Q200.7813,371.1611 200.7813,368.1768 Q200.7813,365.6455 201.9453,363.9893 Q203.1094,362.333 205.0938,362.333 Q206.5625,362.333 207.0313,362.458 Q207.5,362.6611 207.5,362.6611 Q207.5,362.6611 207.5,362.5908 Q207.5,362.5205 208.1094,361.5986 L209.1563,365.2549 L207.8281,365.6611 Q207.3594,364.1143 206.6953,363.4502 Q206.0313,362.7861 204.9688,362.7861 Q204.5781,362.7861 203.8125,364.3174 Q203.0469,365.8486 203.0469,368.0986 Q203.0469,370.5674 203.7109,371.958 Q204.375,373.3486 204.9063,373.3486 Q205.9688,373.3486 206.7266,372.583 Q207.4844,371.8174 207.8281,370.1611 L209.1563,370.7549 Q208.8281,372.1611 207.9297,373.0518 Q207.0313,373.9424 204.8281,373.9424 Z " fill="#000000"/><text fill="#000000" font-family="sans-serif" font-size="12" lengthAdjust="spacing" textLength="57" x="222.75" y="374.1406">Colleague</text><line style="stroke:#A80036;stroke-width:1.5;" x1="181" x2="293" y1="384.583" y2="384.583"/><ellipse cx="191" cy="395.583" fill="none" rx="3" ry="3" style="stroke:#038048;stroke-width:1.0;"/><text fill="#000000" font-family="sans-serif" font-size="11" lengthAdjust="spacing" textLength="88" x="200" y="401.189">mediator: Mediator</text><line style="stroke:#A80036;stroke-width:1.5;" x1="181" x2="293" y1="407.606" y2="407.606"/><!--MD5=[050d5c3230fa5626353bae77dee06410]
class ConcreteColleagueA--><rect codeLine="19" fill="#FEFECE" filter="url(#fzzqgg9lmh7p4)" height="78.0459" id="ConcreteColleagueA" style="stroke:#A80036;stroke-width:1.5;" width="146" x="164" y="214.583"/><ellipse cx="179" cy="230.583" fill="#ADD1B2" rx="11" ry="11" style="stroke:#A80036;stroke-width:1.0;"/><path d="M177.5781,235.9424 Q175.7188,235.9424 174.625,234.5518 Q173.5313,233.1611 173.5313,230.1768 Q173.5313,227.6455 174.6953,225.9893 Q175.8594,224.333 177.8438,224.333 Q179.3125,224.333 179.7813,224.458 Q180.25,224.6611 180.25,224.6611 Q180.25,224.6611 180.25,224.5908 Q180.25,224.5205 180.8594,223.5986 L181.9063,227.2549 L180.5781,227.6611 Q180.1094,226.1143 179.4453,225.4502 Q178.7813,224.7861 177.7188,224.7861 Q177.3281,224.7861 176.5625,226.3174 Q175.7969,227.8486 175.7969,230.0986 Q175.7969,232.5674 176.4609,233.958 Q177.125,235.3486 177.6563,235.3486 Q178.7188,235.3486 179.4766,234.583 Q180.2344,233.8174 180.5781,232.1611 L181.9063,232.7549 Q181.5781,234.1611 180.6797,235.0518 Q179.7813,235.9424 177.5781,235.9424 Z " fill="#000000"/><text fill="#000000" font-family="sans-serif" font-size="12" lengthAdjust="spacing" textLength="114" x="193" y="236.1406">ConcreteColleagueA</text><line style="stroke:#A80036;stroke-width:1.5;" x1="165" x2="309" y1="246.583" y2="246.583"/><line style="stroke:#A80036;stroke-width:1.5;" x1="165" x2="309" y1="254.583" y2="254.583"/><ellipse cx="175" cy="265.583" fill="#84BE84" rx="3" ry="3" style="stroke:#038048;stroke-width:1.0;"/><text fill="#000000" font-family="sans-serif" font-size="11" lengthAdjust="spacing" textLength="107" x="184" y="271.189">ConcreteColleagueA()</text><ellipse cx="175" cy="280.606" fill="#84BE84" rx="3" ry="3" style="stroke:#038048;stroke-width:1.0;"/><text fill="#000000" font-family="sans-serif" font-size="11" lengthAdjust="spacing" textLength="70" x="184" y="286.2119">doSomething()</text><!--MD5=[ebdda206fa6ec483d41fcaa75eff9b4f]
class ConcreteColleagueB--><rect codeLine="24" fill="#FEFECE" filter="url(#fzzqgg9lmh7p4)" height="78.0459" id="ConcreteColleagueB" style="stroke:#A80036;stroke-width:1.5;" width="147" x="345.5" y="214.583"/><ellipse cx="360.5" cy="230.583" fill="#ADD1B2" rx="11" ry="11" style="stroke:#A80036;stroke-width:1.0;"/><path d="M359.0781,235.9424 Q357.2188,235.9424 356.125,234.5518 Q355.0313,233.1611 355.0313,230.1768 Q355.0313,227.6455 356.1953,225.9893 Q357.3594,224.333 359.3438,224.333 Q360.8125,224.333 361.2813,224.458 Q361.75,224.6611 361.75,224.6611 Q361.75,224.6611 361.75,224.5908 Q361.75,224.5205 362.3594,223.5986 L363.4063,227.2549 L362.0781,227.6611 Q361.6094,226.1143 360.9453,225.4502 Q360.2813,224.7861 359.2188,224.7861 Q358.8281,224.7861 358.0625,226.3174 Q357.2969,227.8486 357.2969,230.0986 Q357.2969,232.5674 357.9609,233.958 Q358.625,235.3486 359.1563,235.3486 Q360.2188,235.3486 360.9766,234.583 Q361.7344,233.8174 362.0781,232.1611 L363.4063,232.7549 Q363.0781,234.1611 362.1797,235.0518 Q361.2813,235.9424 359.0781,235.9424 Z " fill="#000000"/><text fill="#000000" font-family="sans-serif" font-size="12" lengthAdjust="spacing" textLength="115" x="374.5" y="236.1406">ConcreteColleagueB</text><line style="stroke:#A80036;stroke-width:1.5;" x1="346.5" x2="491.5" y1="246.583" y2="246.583"/><line style="stroke:#A80036;stroke-width:1.5;" x1="346.5" x2="491.5" y1="254.583" y2="254.583"/><ellipse cx="356.5" cy="265.583" fill="#84BE84" rx="3" ry="3" style="stroke:#038048;stroke-width:1.0;"/><text fill="#000000" font-family="sans-serif" font-size="11" lengthAdjust="spacing" textLength="106" x="365.5" y="271.189">ConcreteColleagueB()</text><ellipse cx="356.5" cy="280.606" fill="#84BE84" rx="3" ry="3" style="stroke:#038048;stroke-width:1.0;"/><text fill="#000000" font-family="sans-serif" font-size="11" lengthAdjust="spacing" textLength="70" x="365.5" y="286.2119">doSomething()</text><!--MD5=[4796e1680cb904be43c4c7d99ad5b3d8]
link ConcreteMediator to Mediator--><path codeLine="29" d="M172.14,154.913 C153.28,172.603 133.04,191.583 115.46,208.073 " fill="none" id="ConcreteMediator-to-Mediator" style="stroke:#A80036;stroke-width:1.0;stroke-dasharray:7.0,7.0;"/><polygon fill="none" points="120.17,213.243,100.8,221.823,110.6,203.033,120.17,213.243" style="stroke:#A80036;stroke-width:1.0;"/><!--MD5=[9601780bb6265a1c6504351d2f1fb1c4]
link ConcreteColleagueA to Colleague--><path codeLine="30" d="M237,292.793 C237,305.163 237,319.093 237,332.243 " fill="none" id="ConcreteColleagueA-to-Colleague" style="stroke:#A80036;stroke-width:1.0;"/><polygon fill="none" points="244,332.553,237,352.553,230,332.553,244,332.553" style="stroke:#A80036;stroke-width:1.0;"/><!--MD5=[8f7a3f4ea450bf3116b9dae123969800]
link ConcreteColleagueB to Colleague--><path codeLine="31" d="M364.89,292.793 C343.45,307.923 318.73,325.383 296.76,340.883 " fill="none" id="ConcreteColleagueB-to-Colleague" style="stroke:#A80036;stroke-width:1.0;"/><polygon fill="none" points="300.61,346.743,280.23,352.553,292.53,335.303,300.61,346.743" style="stroke:#A80036;stroke-width:1.0;"/><!--MD5=[effe8b73f5cd0b64a398a2c15f2359ce]
link ConcreteMediator to ConcreteColleagueA--><path codeLine="33" d="M237,160.073 C237,176.623 237,193.963 237,209.093 " fill="none" id="ConcreteMediator-ConcreteColleagueA" style="stroke:#A80036;stroke-width:1.0;"/><polygon fill="#A80036" points="237,214.143,241,205.143,237,209.143,233,205.143,237,214.143" style="stroke:#A80036;stroke-width:1.0;"/><path d="M233,159.913 L241,167.913 M241,159.913 L233,167.913 " fill="none" style="stroke:#A80036;stroke-width:1.0;"/><!--MD5=[cf2ff71f9df26da7d15bbe5f45553104]
link ConcreteMediator to ConcreteColleagueB--><path codeLine="34" d="M310.39,157.993 C330.84,175.813 352.53,194.693 371.11,210.873 " fill="none" id="ConcreteMediator-ConcreteColleagueB" style="stroke:#A80036;stroke-width:1.0;"/><polygon fill="#A80036" points="375.26,214.493,371.1016,205.5651,371.49,211.2086,365.8465,211.597,375.26,214.493" style="stroke:#A80036;stroke-width:1.0;"/><path d="M307.7324,160.9834 L319.0194,160.2066 M312.9875,154.9515 L313.7643,166.2385 " fill="none" style="stroke:#A80036;stroke-width:1.0;"/><!--MD5=[836c135854012d78a1a138c6e9328257]
link Mediator to Colleague--><path codeLine="36" d="M112.62,288.503 C137.33,307.303 167.95,330.583 192.63,349.343 " fill="none" id="Mediator-Colleague" style="stroke:#A80036;stroke-width:1.0;"/><polygon fill="#A80036" points="196.85,352.553,192.1041,343.923,192.8689,349.528,187.264,350.2928,196.85,352.553" style="stroke:#A80036;stroke-width:1.0;"/><path d="M110.041,291.5729 L121.2509,290.0433 M114.8811,285.2032 L116.4108,296.413 " fill="none" style="stroke:#A80036;stroke-width:1.0;"/><!--MD5=[e88ae6453154d256be8edd8b1e090649]
@startuml mediator
title 中介者模式

interface Mediator {
    +changed(colleague)
}

class ConcreteMediator {
    -concreteColleagueA
    -concreteColleagueA
    +changed(colleague) void
    +setConcreteColleagueA(colleague) void
    +setConcreteColleagueB(colleague) void
}

class Colleague {
    +mediator: Mediator
}

class ConcreteColleagueA {
    +ConcreteColleagueA()
    +doSomething()
}

class ConcreteColleagueB {
    +ConcreteColleagueB()
    +doSomething()
}

ConcreteMediator ..|> Mediator
ConcreteColleagueA - -|> Colleague
ConcreteColleagueB - -|> Colleague

ConcreteMediator x- -> ConcreteColleagueA
ConcreteMediator x- -> ConcreteColleagueB

Mediator x- -> Colleague
@enduml

PlantUML version 1.2021.00(Sun Jan 10 18:25:05 CST 2021)
(GPL source distribution)
Java Runtime: Java(TM) SE Runtime Environment
JVM: Java HotSpot(TM) 64-Bit Server VM
Default Encoding: GBK
Language: zh
Country: CN
--></g></svg>