<?xml version="1.0" encoding="UTF-8" standalone="no"?><svg xmlns="http://www.w3.org/2000/svg" xmlns:xlink="http://www.w3.org/1999/xlink" contentScriptType="application/ecmascript" contentStyleType="text/css" height="276px" preserveAspectRatio="none" style="width:405px;height:276px;" version="1.1" viewBox="0 0 405 276" width="405px" zoomAndPan="magnify"><defs><filter height="300%" id="f1a5wz732h4oyj" width="300%" x="-1" y="-1"><feGaussianBlur result="blurOut" stdDeviation="2.0"/><feColorMatrix in="blurOut" result="blurOut2" type="matrix" values="0 0 0 0 0 0 0 0 0 0 0 0 0 0 0 0 0 0 .4 0"/><feOffset dx="4.0" dy="4.0" in="blurOut2" result="blurOut3"/><feBlend in="SourceGraphic" in2="blurOut3" mode="normal"/></filter></defs><g><text fill="#000000" font-family="sans-serif" font-size="18" lengthAdjust="spacing" textLength="126" x="133.25" y="20.6279">组合模式结构图</text><!--MD5=[73d251a377f173325f21997c77c25ad9]
class Composite--><rect codeLine="8" fill="#FEFECE" filter="url(#f1a5wz732h4oyj)" height="108.0918" id="Composite" style="stroke:#A80036;stroke-width:1.5;" width="171" x="220.5" y="31.583"/><ellipse cx="271.25" cy="47.583" fill="#ADD1B2" rx="11" ry="11" style="stroke:#A80036;stroke-width:1.0;"/><path d="M269.8281,52.9424 Q267.9688,52.9424 266.875,51.5518 Q265.7813,50.1611 265.7813,47.1768 Q265.7813,44.6455 266.9453,42.9893 Q268.1094,41.333 270.0938,41.333 Q271.5625,41.333 272.0313,41.458 Q272.5,41.6611 272.5,41.6611 Q272.5,41.6611 272.5,41.5908 Q272.5,41.5205 273.1094,40.5986 L274.1563,44.2549 L272.8281,44.6611 Q272.3594,43.1143 271.6953,42.4502 Q271.0313,41.7861 269.9688,41.7861 Q269.5781,41.7861 268.8125,43.3174 Q268.0469,44.8486 268.0469,47.0986 Q268.0469,49.5674 268.7109,50.958 Q269.375,52.3486 269.9063,52.3486 Q270.9688,52.3486 271.7266,51.583 Q272.4844,50.8174 272.8281,49.1611 L274.1563,49.7549 Q273.8281,51.1611 272.9297,52.0518 Q272.0313,52.9424 269.8281,52.9424 Z " fill="#000000"/><text fill="#000000" font-family="sans-serif" font-size="12" lengthAdjust="spacing" textLength="61" x="291.75" y="53.1406">Composite</text><line style="stroke:#A80036;stroke-width:1.5;" x1="221.5" x2="390.5" y1="63.583" y2="63.583"/><rect fill="none" height="6" style="stroke:#C82930;stroke-width:1.0;" width="6" x="228.5" y="71.583"/><text fill="#000000" font-family="sans-serif" font-size="11" lengthAdjust="spacing" textLength="125" x="240.5" y="80.189">components: Component[]</text><line style="stroke:#A80036;stroke-width:1.5;" x1="221.5" x2="390.5" y1="86.606" y2="86.606"/><ellipse cx="231.5" cy="97.606" fill="#84BE84" rx="3" ry="3" style="stroke:#038048;stroke-width:1.0;"/><text fill="#000000" font-family="sans-serif" font-size="11" lengthAdjust="spacing" textLength="53" x="240.5" y="103.2119">operation()</text><ellipse cx="231.5" cy="112.6289" fill="#84BE84" rx="3" ry="3" style="stroke:#038048;stroke-width:1.0;"/><text fill="#000000" font-family="sans-serif" font-size="11" lengthAdjust="spacing" textLength="133" x="240.5" y="118.2349">addComponent(component)</text><ellipse cx="231.5" cy="127.6519" fill="#84BE84" rx="3" ry="3" style="stroke:#038048;stroke-width:1.0;"/><text fill="#000000" font-family="sans-serif" font-size="11" lengthAdjust="spacing" textLength="145" x="240.5" y="133.2578">removeComponent(comonent)</text><!--MD5=[3670a9b67b8a752f6e42da25dea7e2da]
class Leaf--><rect codeLine="15" fill="#FEFECE" filter="url(#f1a5wz732h4oyj)" height="63.0229" id="Leaf" style="stroke:#A80036;stroke-width:1.5;" width="79" x="106.5" y="54.083"/><ellipse cx="131.85" cy="70.083" fill="#ADD1B2" rx="11" ry="11" style="stroke:#A80036;stroke-width:1.0;"/><path d="M130.4281,75.4424 Q128.5688,75.4424 127.475,74.0518 Q126.3813,72.6611 126.3813,69.6768 Q126.3813,67.1455 127.5453,65.4893 Q128.7094,63.833 130.6938,63.833 Q132.1625,63.833 132.6313,63.958 Q133.1,64.1611 133.1,64.1611 Q133.1,64.1611 133.1,64.0908 Q133.1,64.0205 133.7094,63.0986 L134.7563,66.7549 L133.4281,67.1611 Q132.9594,65.6143 132.2953,64.9502 Q131.6313,64.2861 130.5688,64.2861 Q130.1781,64.2861 129.4125,65.8174 Q128.6469,67.3486 128.6469,69.5986 Q128.6469,72.0674 129.3109,73.458 Q129.975,74.8486 130.5063,74.8486 Q131.5688,74.8486 132.3266,74.083 Q133.0844,73.3174 133.4281,71.6611 L134.7563,72.2549 Q134.4281,73.6611 133.5297,74.5518 Q132.6313,75.4424 130.4281,75.4424 Z " fill="#000000"/><text fill="#000000" font-family="sans-serif" font-size="12" lengthAdjust="spacing" textLength="24" x="148.15" y="75.6406">Leaf</text><line style="stroke:#A80036;stroke-width:1.5;" x1="107.5" x2="184.5" y1="86.083" y2="86.083"/><line style="stroke:#A80036;stroke-width:1.5;" x1="107.5" x2="184.5" y1="94.083" y2="94.083"/><ellipse cx="117.5" cy="105.083" fill="#84BE84" rx="3" ry="3" style="stroke:#038048;stroke-width:1.0;"/><text fill="#000000" font-family="sans-serif" font-size="11" lengthAdjust="spacing" textLength="53" x="126.5" y="110.689">operation()</text><!--MD5=[4e13963c9dc916a21a8436ef39422b32]
class Component--><rect codeLine="3" fill="#FEFECE" filter="url(#f1a5wz732h4oyj)" height="63.0229" id="Component" style="stroke:#A80036;stroke-width:1.5;" width="97" x="177.5" y="199.583"/><ellipse cx="192.5" cy="215.583" fill="#ADD1B2" rx="11" ry="11" style="stroke:#A80036;stroke-width:1.0;"/><path d="M191.0781,220.9424 Q189.2188,220.9424 188.125,219.5518 Q187.0313,218.1611 187.0313,215.1768 Q187.0313,212.6455 188.1953,210.9893 Q189.3594,209.333 191.3438,209.333 Q192.8125,209.333 193.2813,209.458 Q193.75,209.6611 193.75,209.6611 Q193.75,209.6611 193.75,209.5908 Q193.75,209.5205 194.3594,208.5986 L195.4063,212.2549 L194.0781,212.6611 Q193.6094,211.1143 192.9453,210.4502 Q192.2813,209.7861 191.2188,209.7861 Q190.8281,209.7861 190.0625,211.3174 Q189.2969,212.8486 189.2969,215.0986 Q189.2969,217.5674 189.9609,218.958 Q190.625,220.3486 191.1563,220.3486 Q192.2188,220.3486 192.9766,219.583 Q193.7344,218.8174 194.0781,217.1611 L195.4063,217.7549 Q195.0781,219.1611 194.1797,220.0518 Q193.2813,220.9424 191.0781,220.9424 Z " fill="#000000"/><text fill="#000000" font-family="sans-serif" font-size="12" lengthAdjust="spacing" textLength="65" x="206.5" y="221.1406">Component</text><line style="stroke:#A80036;stroke-width:1.5;" x1="178.5" x2="273.5" y1="231.583" y2="231.583"/><line style="stroke:#A80036;stroke-width:1.5;" x1="178.5" x2="273.5" y1="239.583" y2="239.583"/><ellipse cx="188.5" cy="250.583" fill="#84BE84" rx="3" ry="3" style="stroke:#038048;stroke-width:1.0;"/><text fill="#000000" font-family="sans-serif" font-size="11" lengthAdjust="spacing" textLength="53" x="197.5" y="256.189">operation()</text><!--MD5=[ed6624c6556d5e7b1bd23032162d20b7]
class Client--><rect codeLine="6" fill="#FEFECE" filter="url(#f1a5wz732h4oyj)" height="48" id="Client" style="stroke:#A80036;stroke-width:1.5;" width="64" x="7" y="61.583"/><ellipse cx="22" cy="77.583" fill="#ADD1B2" rx="11" ry="11" style="stroke:#A80036;stroke-width:1.0;"/><path d="M20.5781,82.9424 Q18.7188,82.9424 17.625,81.5518 Q16.5313,80.1611 16.5313,77.1768 Q16.5313,74.6455 17.6953,72.9893 Q18.8594,71.333 20.8438,71.333 Q22.3125,71.333 22.7813,71.458 Q23.25,71.6611 23.25,71.6611 Q23.25,71.6611 23.25,71.5908 Q23.25,71.5205 23.8594,70.5986 L24.9063,74.2549 L23.5781,74.6611 Q23.1094,73.1143 22.4453,72.4502 Q21.7813,71.7861 20.7188,71.7861 Q20.3281,71.7861 19.5625,73.3174 Q18.7969,74.8486 18.7969,77.0986 Q18.7969,79.5674 19.4609,80.958 Q20.125,82.3486 20.6563,82.3486 Q21.7188,82.3486 22.4766,81.583 Q23.2344,80.8174 23.5781,79.1611 L24.9063,79.7549 Q24.5781,81.1611 23.6797,82.0518 Q22.7813,82.9424 20.5781,82.9424 Z " fill="#000000"/><text fill="#000000" font-family="sans-serif" font-size="12" lengthAdjust="spacing" textLength="32" x="36" y="83.1406">Client</text><line style="stroke:#A80036;stroke-width:1.5;" x1="8" x2="70" y1="93.583" y2="93.583"/><line style="stroke:#A80036;stroke-width:1.5;" x1="8" x2="70" y1="101.583" y2="101.583"/><!--MD5=[a1391b63cd2ce982094058ba29337eac]
link Composite to Component--><path codeLine="20" d="M258.0131,149.9664 C258.0131,149.9664 243.54,176.053 237.98,187.483 " fill="none" id="Composite-Component" style="stroke:#A80036;stroke-width:1.0;"/><polygon fill="#A80036" points="232.45,199.353,239.8807,192.8889,234.5644,194.8221,232.6312,189.5058,232.45,199.353" style="stroke:#A80036;stroke-width:1.0;"/><line style="stroke:#A80036;stroke-width:1.0;" x1="234.5644" x2="237.945" y1="194.8221" y2="187.568"/><polygon fill="#FFFFFF" points="264.08,139.613,257.5954,142.7674,258.0131,149.9664,264.4977,146.812,264.08,139.613" style="stroke:#A80036;stroke-width:1.0;"/><text fill="#000000" font-family="sans-serif" font-size="13" lengthAdjust="spacing" textLength="7" x="251.2606" y="162.5651">1</text><text fill="#000000" font-family="sans-serif" font-size="13" lengthAdjust="spacing" textLength="20" x="211.6734" y="188.5306">0..*</text><!--MD5=[a1391b63cd2ce982094058ba29337eac]
link Composite to Component--><path codeLine="21" d="M289.52,139.613 C282.36,153.603 273.9,168.613 265.44,182.303 " fill="none" id="Composite-to-Component" style="stroke:#A80036;stroke-width:1.0;"/><polygon fill="none" points="271.17,186.343,254.44,199.353,259.41,178.753,271.17,186.343" style="stroke:#A80036;stroke-width:1.0;"/><!--MD5=[e28bd9fa5b98e77e55a6adb443207463]
link Leaf to Component--><path codeLine="22" d="M163.16,117.363 C173.6,136.093 187.16,160.423 199.01,181.673 " fill="none" id="Leaf-to-Component" style="stroke:#A80036;stroke-width:1.0;"/><polygon fill="none" points="205.24,178.473,208.87,199.353,193.01,185.293,205.24,178.473" style="stroke:#A80036;stroke-width:1.0;"/><!--MD5=[fa39e0b8b995cfad057d1e097dfd30f9]
link Client to Component--><path codeLine="23" d="M50.15,109.853 C59.07,126.513 72.89,148.563 90,163.583 C113.9,184.553 145.58,200.553 172.35,211.603 " fill="none" id="Client-to-Component" style="stroke:#A80036;stroke-width:1.0;"/><polygon fill="#A80036" points="177.29,213.603,170.4456,206.5211,172.6546,211.7288,167.4468,213.9378,177.29,213.603" style="stroke:#A80036;stroke-width:1.0;"/><!--MD5=[7073c6f187a6dfbe22d9525c7b728914]
@startuml composite
title 组合模式结构图

class Component {
    +operation()
}
class Client{}
together {
    class Composite {
        -components: Component[]
        +operation()
        +addComponent(component)
        +removeComponent(comonent)
    }

    class Leaf {
        +operation()
    }
}

Composite "1" o- -> "0..*" Component
Composite - -|> Component
Leaf - -|> Component
Client - -> Component
@enduml

PlantUML version 1.2021.00(Sun Jan 10 18:25:05 CST 2021)
(GPL source distribution)
Java Runtime: Java(TM) SE Runtime Environment
JVM: Java HotSpot(TM) 64-Bit Server VM
Default Encoding: GBK
Language: zh
Country: CN
--></g></svg>