<?xml version="1.0" encoding="UTF-8" standalone="no"?><svg xmlns="http://www.w3.org/2000/svg" xmlns:xlink="http://www.w3.org/1999/xlink" contentScriptType="application/ecmascript" contentStyleType="text/css" height="261px" preserveAspectRatio="none" style="width:293px;height:261px;" version="1.1" viewBox="0 0 293 261" width="293px" zoomAndPan="magnify"><defs><filter height="300%" id="fbnt0zmks5lz4" width="300%" x="-1" y="-1"><feGaussianBlur result="blurOut" stdDeviation="2.0"/><feColorMatrix in="blurOut" result="blurOut2" type="matrix" values="0 0 0 0 0 0 0 0 0 0 0 0 0 0 0 0 0 0 .4 0"/><feOffset dx="4.0" dy="4.0" in="blurOut2" result="blurOut3"/><feBlend in="SourceGraphic" in2="blurOut3" mode="normal"/></filter></defs><g><text fill="#000000" font-family="sans-serif" font-size="18" lengthAdjust="spacing" textLength="144" x="68" y="20.6279">适配器模式结构图</text><!--MD5=[ed6624c6556d5e7b1bd23032162d20b7]
class Client--><rect codeLine="2" fill="#FEFECE" filter="url(#fbnt0zmks5lz4)" height="48" id="Client" style="stroke:#A80036;stroke-width:1.5;" width="64" x="22" y="54.083"/><ellipse cx="37" cy="70.083" fill="#ADD1B2" rx="11" ry="11" style="stroke:#A80036;stroke-width:1.0;"/><path d="M35.5781,75.4424 Q33.7188,75.4424 32.625,74.0518 Q31.5313,72.6611 31.5313,69.6768 Q31.5313,67.1455 32.6953,65.4893 Q33.8594,63.833 35.8438,63.833 Q37.3125,63.833 37.7813,63.958 Q38.25,64.1611 38.25,64.1611 Q38.25,64.1611 38.25,64.0908 Q38.25,64.0205 38.8594,63.0986 L39.9063,66.7549 L38.5781,67.1611 Q38.1094,65.6143 37.4453,64.9502 Q36.7813,64.2861 35.7188,64.2861 Q35.3281,64.2861 34.5625,65.8174 Q33.7969,67.3486 33.7969,69.5986 Q33.7969,72.0674 34.4609,73.458 Q35.125,74.8486 35.6563,74.8486 Q36.7188,74.8486 37.4766,74.083 Q38.2344,73.3174 38.5781,71.6611 L39.9063,72.2549 Q39.5781,73.6611 38.6797,74.5518 Q37.7813,75.4424 35.5781,75.4424 Z " fill="#000000"/><text fill="#000000" font-family="sans-serif" font-size="12" lengthAdjust="spacing" textLength="32" x="51" y="75.6406">Client</text><line style="stroke:#A80036;stroke-width:1.5;" x1="23" x2="85" y1="86.083" y2="86.083"/><line style="stroke:#A80036;stroke-width:1.5;" x1="23" x2="85" y1="94.083" y2="94.083"/><!--MD5=[fc07866a383d07d405a25512054a0e5c]
class Target--><rect codeLine="3" fill="#FEFECE" filter="url(#fbnt0zmks5lz4)" height="63.0229" id="Target" style="stroke:#A80036;stroke-width:1.5;" width="94" x="7" y="184.583"/><ellipse cx="34.15" cy="200.583" fill="#B4A7E5" rx="11" ry="11" style="stroke:#A80036;stroke-width:1.0;"/><path d="M30.7438,194.8643 L30.7438,194.458 L37.0563,194.458 L37.0563,194.8643 L34.525,194.8643 Q34.525,194.8643 34.6734,194.9971 Q34.8219,195.1299 34.8219,195.3955 L34.8219,204.8799 Q34.8219,205.1455 35.0406,205.2783 Q35.2594,205.4111 35.2594,205.4111 L37.0563,205.4111 L37.0563,205.8174 L30.7438,205.8174 L30.7438,205.4111 L32.275,205.4111 Q32.6031,205.4111 32.7359,205.2783 Q32.8688,205.1455 32.8688,204.8799 L32.8688,195.3955 Q32.8688,195.1299 32.7359,194.9971 Q32.6031,194.8643 32.275,194.8643 L30.7438,194.8643 Z " fill="#000000"/><text fill="#000000" font-family="sans-serif" font-size="12" font-style="italic" lengthAdjust="spacing" textLength="35" x="50.85" y="206.1406">Target</text><line style="stroke:#A80036;stroke-width:1.5;" x1="8" x2="100" y1="216.583" y2="216.583"/><line style="stroke:#A80036;stroke-width:1.5;" x1="8" x2="100" y1="224.583" y2="224.583"/><ellipse cx="18" cy="235.583" fill="#84BE84" rx="3" ry="3" style="stroke:#038048;stroke-width:1.0;"/><text fill="#000000" font-family="sans-serif" font-size="11" lengthAdjust="spacing" textLength="68" x="27" y="241.189">request() void</text><!--MD5=[7393b79429f23cd61e6e6a493d3a2b14]
class Adaptee--><rect codeLine="6" fill="#FEFECE" filter="url(#fbnt0zmks5lz4)" height="63.0229" id="Adaptee" style="stroke:#A80036;stroke-width:1.5;" width="135" x="136.5" y="184.583"/><ellipse cx="177.6" cy="200.583" fill="#ADD1B2" rx="11" ry="11" style="stroke:#A80036;stroke-width:1.0;"/><path d="M176.1781,205.9424 Q174.3188,205.9424 173.225,204.5518 Q172.1313,203.1611 172.1313,200.1768 Q172.1313,197.6455 173.2953,195.9893 Q174.4594,194.333 176.4438,194.333 Q177.9125,194.333 178.3813,194.458 Q178.85,194.6611 178.85,194.6611 Q178.85,194.6611 178.85,194.5908 Q178.85,194.5205 179.4594,193.5986 L180.5063,197.2549 L179.1781,197.6611 Q178.7094,196.1143 178.0453,195.4502 Q177.3813,194.7861 176.3188,194.7861 Q175.9281,194.7861 175.1625,196.3174 Q174.3969,197.8486 174.3969,200.0986 Q174.3969,202.5674 175.0609,203.958 Q175.725,205.3486 176.2563,205.3486 Q177.3188,205.3486 178.0766,204.583 Q178.8344,203.8174 179.1781,202.1611 L180.5063,202.7549 Q180.1781,204.1611 179.2797,205.0518 Q178.3813,205.9424 176.1781,205.9424 Z " fill="#000000"/><text fill="#000000" font-family="sans-serif" font-size="12" lengthAdjust="spacing" textLength="45" x="197.4" y="206.1406">Adaptee</text><line style="stroke:#A80036;stroke-width:1.5;" x1="137.5" x2="270.5" y1="216.583" y2="216.583"/><line style="stroke:#A80036;stroke-width:1.5;" x1="137.5" x2="270.5" y1="224.583" y2="224.583"/><ellipse cx="147.5" cy="235.583" fill="#84BE84" rx="3" ry="3" style="stroke:#038048;stroke-width:1.0;"/><text fill="#000000" font-family="sans-serif" font-size="11" lengthAdjust="spacing" textLength="109" x="156.5" y="241.189">specificRequest() void</text><!--MD5=[f38a85e47f7d4f812523dd9b6d7d2c16]
class Adapter--><rect codeLine="9" fill="#FEFECE" filter="url(#fbnt0zmks5lz4)" height="93.0688" id="Adapter" style="stroke:#A80036;stroke-width:1.5;" width="156" x="123" y="31.583"/><ellipse cx="175.75" cy="47.583" fill="#ADD1B2" rx="11" ry="11" style="stroke:#A80036;stroke-width:1.0;"/><path d="M174.3281,52.9424 Q172.4688,52.9424 171.375,51.5518 Q170.2813,50.1611 170.2813,47.1768 Q170.2813,44.6455 171.4453,42.9893 Q172.6094,41.333 174.5938,41.333 Q176.0625,41.333 176.5313,41.458 Q177,41.6611 177,41.6611 Q177,41.6611 177,41.5908 Q177,41.5205 177.6094,40.5986 L178.6563,44.2549 L177.3281,44.6611 Q176.8594,43.1143 176.1953,42.4502 Q175.5313,41.7861 174.4688,41.7861 Q174.0781,41.7861 173.3125,43.3174 Q172.5469,44.8486 172.5469,47.0986 Q172.5469,49.5674 173.2109,50.958 Q173.875,52.3486 174.4063,52.3486 Q175.4688,52.3486 176.2266,51.583 Q176.9844,50.8174 177.3281,49.1611 L178.6563,49.7549 Q178.3281,51.1611 177.4297,52.0518 Q176.5313,52.9424 174.3281,52.9424 Z " fill="#000000"/><text fill="#000000" font-family="sans-serif" font-size="12" lengthAdjust="spacing" textLength="42" x="196.25" y="53.1406">Adapter</text><line style="stroke:#A80036;stroke-width:1.5;" x1="124" x2="278" y1="63.583" y2="63.583"/><rect fill="none" height="6" style="stroke:#C82930;stroke-width:1.0;" width="6" x="131" y="71.583"/><text fill="#000000" font-family="sans-serif" font-size="11" lengthAdjust="spacing" textLength="83" x="143" y="80.189">adaptee:Adaptee</text><line style="stroke:#A80036;stroke-width:1.5;" x1="124" x2="278" y1="86.606" y2="86.606"/><ellipse cx="134" cy="97.606" fill="#84BE84" rx="3" ry="3" style="stroke:#038048;stroke-width:1.0;"/><text fill="#000000" font-family="sans-serif" font-size="11" lengthAdjust="spacing" textLength="130" x="143" y="103.2119">Adapter(adaptee:Adaptee)</text><ellipse cx="134" cy="112.6289" fill="#84BE84" rx="3" ry="3" style="stroke:#038048;stroke-width:1.0;"/><text fill="#000000" font-family="sans-serif" font-size="11" lengthAdjust="spacing" textLength="68" x="143" y="118.2349">request() void</text><!--MD5=[431c3f1848dccc83292155c400886313]
link Client to Target--><path codeLine="15" d="M54,102.153 C54,123.313 54,154.963 54,179.383 " fill="none" id="Client-to-Target" style="stroke:#A80036;stroke-width:1.0;stroke-dasharray:7.0,7.0;"/><polygon fill="#A80036" points="54,184.473,58,175.473,54,179.473,50,175.473,54,184.473" style="stroke:#A80036;stroke-width:1.0;"/><!--MD5=[96ca2c7f807eeb04e8b71c6caba6e7cf]
link Adapter to Target--><path codeLine="16" d="M151.64,124.743 C135.75,139.443 118.17,155.713 102.35,170.343 " fill="none" id="Adapter-to-Target" style="stroke:#A80036;stroke-width:1.0;"/><polygon fill="none" points="106.69,175.873,87.25,184.313,97.18,165.593,106.69,175.873" style="stroke:#A80036;stroke-width:1.0;"/><!--MD5=[ac16be24c016d0cc1b5b2bfc6dfbddbe]
link Adapter to Adaptee--><path codeLine="17" d="M202.12,129.853 C202.48,146.303 202.88,164.183 203.21,179.303 " fill="none" id="Adapter-Adaptee" style="stroke:#A80036;stroke-width:1.0;"/><polygon fill="#A80036" points="203.32,184.313,207.1392,175.2348,203.22,179.314,199.1408,175.3948,203.32,184.313" style="stroke:#A80036;stroke-width:1.0;"/><path d="M198.1253,129.8331 L206.306,137.6482 M206.1232,129.6503 L198.3081,137.831 " fill="none" style="stroke:#A80036;stroke-width:1.0;"/><!--MD5=[acf770638ef5b9cdf5c2d565e89892eb]
@startuml adapter
title 适配器模式结构图
class Client{}
interface Target{
    +request() void
}
class Adaptee{
    +specificRequest() void
}
class Adapter{
    -adaptee:Adaptee
    +Adapter(adaptee:Adaptee)
    +request() void
}

Client ..> Target
Adapter - -|> Target
Adapter x- -> Adaptee
@enduml

PlantUML version 1.2021.00(Sun Jan 10 18:25:05 CST 2021)
(GPL source distribution)
Java Runtime: Java(TM) SE Runtime Environment
JVM: Java HotSpot(TM) 64-Bit Server VM
Default Encoding: GBK
Language: zh
Country: CN
--></g></svg>