<?xml version="1.0" encoding="UTF-8" standalone="no"?><svg xmlns="http://www.w3.org/2000/svg" xmlns:xlink="http://www.w3.org/1999/xlink" contentScriptType="application/ecmascript" contentStyleType="text/css" height="354px" preserveAspectRatio="none" style="width:584px;height:354px;" version="1.1" viewBox="0 0 584 354" width="584px" zoomAndPan="magnify"><defs><filter height="300%" id="f13va85ir2su48" width="300%" x="-1" y="-1"><feGaussianBlur result="blurOut" stdDeviation="2.0"/><feColorMatrix in="blurOut" result="blurOut2" type="matrix" values="0 0 0 0 0 0 0 0 0 0 0 0 0 0 0 0 0 0 .4 0"/><feOffset dx="4.0" dy="4.0" in="blurOut2" result="blurOut3"/><feBlend in="SourceGraphic" in2="blurOut3" mode="normal"/></filter></defs><g><text fill="#000000" font-family="sans-serif" font-size="18" lengthAdjust="spacing" textLength="108" x="231.75" y="20.6279">工厂方法模式</text><!--MD5=[72136138052d025cffdce3c22fbd185f]
class Product--><rect codeLine="3" fill="#FEFECE" filter="url(#f13va85ir2su48)" height="63.0229" id="Product" style="stroke:#A80036;stroke-width:1.5;" width="96" x="191.5" y="277.583"/><ellipse cx="216.4" cy="293.583" fill="#B4A7E5" rx="11" ry="11" style="stroke:#A80036;stroke-width:1.0;"/><path d="M212.9938,287.8643 L212.9938,287.458 L219.3063,287.458 L219.3063,287.8643 L216.775,287.8643 Q216.775,287.8643 216.9234,287.9971 Q217.0719,288.1299 217.0719,288.3955 L217.0719,297.8799 Q217.0719,298.1455 217.2906,298.2783 Q217.5094,298.4111 217.5094,298.4111 L219.3063,298.4111 L219.3063,298.8174 L212.9938,298.8174 L212.9938,298.4111 L214.525,298.4111 Q214.8531,298.4111 214.9859,298.2783 Q215.1188,298.1455 215.1188,297.8799 L215.1188,288.3955 Q215.1188,288.1299 214.9859,287.9971 Q214.8531,287.8643 214.525,287.8643 L212.9938,287.8643 Z " fill="#000000"/><text fill="#000000" font-family="sans-serif" font-size="12" font-style="italic" lengthAdjust="spacing" textLength="42" x="232.6" y="299.1406">Product</text><line style="stroke:#A80036;stroke-width:1.5;" x1="192.5" x2="286.5" y1="309.583" y2="309.583"/><line style="stroke:#A80036;stroke-width:1.5;" x1="192.5" x2="286.5" y1="317.583" y2="317.583"/><ellipse cx="202.5" cy="328.583" fill="#84BE84" rx="3" ry="3" style="stroke:#038048;stroke-width:1.0;"/><text fill="#000000" font-family="sans-serif" font-size="11" lengthAdjust="spacing" textLength="70" x="211.5" y="334.189">doSomething()</text><!--MD5=[6f5007e1c68ae197b6a2c49f2221322a]
class ConcreteProductA--><rect codeLine="6" fill="#FEFECE" filter="url(#f13va85ir2su48)" height="63.0229" id="ConcreteProductA" style="stroke:#A80036;stroke-width:1.5;" width="131" x="7" y="154.583"/><ellipse cx="22" cy="170.583" fill="#ADD1B2" rx="11" ry="11" style="stroke:#A80036;stroke-width:1.0;"/><path d="M20.5781,175.9424 Q18.7188,175.9424 17.625,174.5518 Q16.5313,173.1611 16.5313,170.1768 Q16.5313,167.6455 17.6953,165.9893 Q18.8594,164.333 20.8438,164.333 Q22.3125,164.333 22.7813,164.458 Q23.25,164.6611 23.25,164.6611 Q23.25,164.6611 23.25,164.5908 Q23.25,164.5205 23.8594,163.5986 L24.9063,167.2549 L23.5781,167.6611 Q23.1094,166.1143 22.4453,165.4502 Q21.7813,164.7861 20.7188,164.7861 Q20.3281,164.7861 19.5625,166.3174 Q18.7969,167.8486 18.7969,170.0986 Q18.7969,172.5674 19.4609,173.958 Q20.125,175.3486 20.6563,175.3486 Q21.7188,175.3486 22.4766,174.583 Q23.2344,173.8174 23.5781,172.1611 L24.9063,172.7549 Q24.5781,174.1611 23.6797,175.0518 Q22.7813,175.9424 20.5781,175.9424 Z " fill="#000000"/><text fill="#000000" font-family="sans-serif" font-size="12" lengthAdjust="spacing" textLength="99" x="36" y="176.1406">ConcreteProductA</text><line style="stroke:#A80036;stroke-width:1.5;" x1="8" x2="137" y1="186.583" y2="186.583"/><line style="stroke:#A80036;stroke-width:1.5;" x1="8" x2="137" y1="194.583" y2="194.583"/><ellipse cx="18" cy="205.583" fill="#84BE84" rx="3" ry="3" style="stroke:#038048;stroke-width:1.0;"/><text fill="#000000" font-family="sans-serif" font-size="11" lengthAdjust="spacing" textLength="70" x="27" y="211.189">doSomething()</text><!--MD5=[11c793f6f48c6887422b4b9cce32ef56]
class ConcreteProductB--><rect codeLine="9" fill="#FEFECE" filter="url(#f13va85ir2su48)" height="63.0229" id="ConcreteProductB" style="stroke:#A80036;stroke-width:1.5;" width="132" x="173.5" y="154.583"/><ellipse cx="188.5" cy="170.583" fill="#ADD1B2" rx="11" ry="11" style="stroke:#A80036;stroke-width:1.0;"/><path d="M187.0781,175.9424 Q185.2188,175.9424 184.125,174.5518 Q183.0313,173.1611 183.0313,170.1768 Q183.0313,167.6455 184.1953,165.9893 Q185.3594,164.333 187.3438,164.333 Q188.8125,164.333 189.2813,164.458 Q189.75,164.6611 189.75,164.6611 Q189.75,164.6611 189.75,164.5908 Q189.75,164.5205 190.3594,163.5986 L191.4063,167.2549 L190.0781,167.6611 Q189.6094,166.1143 188.9453,165.4502 Q188.2813,164.7861 187.2188,164.7861 Q186.8281,164.7861 186.0625,166.3174 Q185.2969,167.8486 185.2969,170.0986 Q185.2969,172.5674 185.9609,173.958 Q186.625,175.3486 187.1563,175.3486 Q188.2188,175.3486 188.9766,174.583 Q189.7344,173.8174 190.0781,172.1611 L191.4063,172.7549 Q191.0781,174.1611 190.1797,175.0518 Q189.2813,175.9424 187.0781,175.9424 Z " fill="#000000"/><text fill="#000000" font-family="sans-serif" font-size="12" lengthAdjust="spacing" textLength="100" x="202.5" y="176.1406">ConcreteProductB</text><line style="stroke:#A80036;stroke-width:1.5;" x1="174.5" x2="304.5" y1="186.583" y2="186.583"/><line style="stroke:#A80036;stroke-width:1.5;" x1="174.5" x2="304.5" y1="194.583" y2="194.583"/><ellipse cx="184.5" cy="205.583" fill="#84BE84" rx="3" ry="3" style="stroke:#038048;stroke-width:1.0;"/><text fill="#000000" font-family="sans-serif" font-size="11" lengthAdjust="spacing" textLength="70" x="193.5" y="211.189">doSomething()</text><!--MD5=[dcda66dabdb739ec36f1175150e3c9d5]
class Factory--><rect codeLine="13" fill="#FEFECE" filter="url(#f13va85ir2su48)" height="63.0229" id="Factory" style="stroke:#A80036;stroke-width:1.5;" width="142" x="340.5" y="154.583"/><ellipse cx="387.75" cy="170.583" fill="#ADD1B2" rx="11" ry="11" style="stroke:#A80036;stroke-width:1.0;"/><path d="M386.3281,175.9424 Q384.4688,175.9424 383.375,174.5518 Q382.2813,173.1611 382.2813,170.1768 Q382.2813,167.6455 383.4453,165.9893 Q384.6094,164.333 386.5938,164.333 Q388.0625,164.333 388.5313,164.458 Q389,164.6611 389,164.6611 Q389,164.6611 389,164.5908 Q389,164.5205 389.6094,163.5986 L390.6563,167.2549 L389.3281,167.6611 Q388.8594,166.1143 388.1953,165.4502 Q387.5313,164.7861 386.4688,164.7861 Q386.0781,164.7861 385.3125,166.3174 Q384.5469,167.8486 384.5469,170.0986 Q384.5469,172.5674 385.2109,173.958 Q385.875,175.3486 386.4063,175.3486 Q387.4688,175.3486 388.2266,174.583 Q388.9844,173.8174 389.3281,172.1611 L390.6563,172.7549 Q390.3281,174.1611 389.4297,175.0518 Q388.5313,175.9424 386.3281,175.9424 Z " fill="#000000"/><text fill="#000000" font-family="sans-serif" font-size="12" lengthAdjust="spacing" textLength="39" x="408.25" y="176.1406">Factory</text><line style="stroke:#A80036;stroke-width:1.5;" x1="341.5" x2="481.5" y1="186.583" y2="186.583"/><line style="stroke:#A80036;stroke-width:1.5;" x1="341.5" x2="481.5" y1="194.583" y2="194.583"/><ellipse cx="351.5" cy="205.583" fill="#84BE84" rx="3" ry="3" style="stroke:#038048;stroke-width:1.0;"/><text fill="#000000" font-family="sans-serif" font-size="11" lengthAdjust="spacing" textLength="116" x="360.5" y="211.189">createProduct() Product</text><!--MD5=[a915c0abadf135b0fd4f28ec0ede1665]
class ProductAFactory--><rect codeLine="16" fill="#FEFECE" filter="url(#f13va85ir2su48)" height="63.0229" id="ProductAFactory" style="stroke:#A80036;stroke-width:1.5;" width="142" x="251.5" y="31.583"/><ellipse cx="276.4" cy="47.583" fill="#ADD1B2" rx="11" ry="11" style="stroke:#A80036;stroke-width:1.0;"/><path d="M274.9781,52.9424 Q273.1188,52.9424 272.025,51.5518 Q270.9313,50.1611 270.9313,47.1768 Q270.9313,44.6455 272.0953,42.9893 Q273.2594,41.333 275.2438,41.333 Q276.7125,41.333 277.1813,41.458 Q277.65,41.6611 277.65,41.6611 Q277.65,41.6611 277.65,41.5908 Q277.65,41.5205 278.2594,40.5986 L279.3063,44.2549 L277.9781,44.6611 Q277.5094,43.1143 276.8453,42.4502 Q276.1813,41.7861 275.1188,41.7861 Q274.7281,41.7861 273.9625,43.3174 Q273.1969,44.8486 273.1969,47.0986 Q273.1969,49.5674 273.8609,50.958 Q274.525,52.3486 275.0563,52.3486 Q276.1188,52.3486 276.8766,51.583 Q277.6344,50.8174 277.9781,49.1611 L279.3063,49.7549 Q278.9781,51.1611 278.0797,52.0518 Q277.1813,52.9424 274.9781,52.9424 Z " fill="#000000"/><text fill="#000000" font-family="sans-serif" font-size="12" lengthAdjust="spacing" textLength="88" x="292.6" y="53.1406">ProductAFactory</text><line style="stroke:#A80036;stroke-width:1.5;" x1="252.5" x2="392.5" y1="63.583" y2="63.583"/><line style="stroke:#A80036;stroke-width:1.5;" x1="252.5" x2="392.5" y1="71.583" y2="71.583"/><ellipse cx="262.5" cy="82.583" fill="#84BE84" rx="3" ry="3" style="stroke:#038048;stroke-width:1.0;"/><text fill="#000000" font-family="sans-serif" font-size="11" lengthAdjust="spacing" textLength="116" x="271.5" y="88.189">createProduct() Product</text><!--MD5=[329066d281c5c00474c0d23bf111124a]
class ProductBFactory--><rect codeLine="19" fill="#FEFECE" filter="url(#f13va85ir2su48)" height="63.0229" id="ProductBFactory" style="stroke:#A80036;stroke-width:1.5;" width="142" x="428.5" y="31.583"/><ellipse cx="452.95" cy="47.583" fill="#ADD1B2" rx="11" ry="11" style="stroke:#A80036;stroke-width:1.0;"/><path d="M451.5281,52.9424 Q449.6688,52.9424 448.575,51.5518 Q447.4813,50.1611 447.4813,47.1768 Q447.4813,44.6455 448.6453,42.9893 Q449.8094,41.333 451.7938,41.333 Q453.2625,41.333 453.7313,41.458 Q454.2,41.6611 454.2,41.6611 Q454.2,41.6611 454.2,41.5908 Q454.2,41.5205 454.8094,40.5986 L455.8563,44.2549 L454.5281,44.6611 Q454.0594,43.1143 453.3953,42.4502 Q452.7313,41.7861 451.6688,41.7861 Q451.2781,41.7861 450.5125,43.3174 Q449.7469,44.8486 449.7469,47.0986 Q449.7469,49.5674 450.4109,50.958 Q451.075,52.3486 451.6063,52.3486 Q452.6688,52.3486 453.4266,51.583 Q454.1844,50.8174 454.5281,49.1611 L455.8563,49.7549 Q455.5281,51.1611 454.6297,52.0518 Q453.7313,52.9424 451.5281,52.9424 Z " fill="#000000"/><text fill="#000000" font-family="sans-serif" font-size="12" lengthAdjust="spacing" textLength="89" x="469.05" y="53.1406">ProductBFactory</text><line style="stroke:#A80036;stroke-width:1.5;" x1="429.5" x2="569.5" y1="63.583" y2="63.583"/><line style="stroke:#A80036;stroke-width:1.5;" x1="429.5" x2="569.5" y1="71.583" y2="71.583"/><ellipse cx="439.5" cy="82.583" fill="#84BE84" rx="3" ry="3" style="stroke:#038048;stroke-width:1.0;"/><text fill="#000000" font-family="sans-serif" font-size="11" lengthAdjust="spacing" textLength="116" x="448.5" y="88.189">createProduct() Product</text><!--MD5=[17d6d022d25b0e9bc9752353f3576132]
link Factory to Product--><path codeLine="23" d="M368.1,217.613 C343.45,234.953 312.56,256.693 287.23,274.503 " fill="none" id="Factory-to-Product" style="stroke:#A80036;stroke-width:1.0;stroke-dasharray:7.0,7.0;"/><polygon fill="#A80036" points="282.89,277.563,292.5489,275.6381,286.974,274.6785,287.9337,269.1036,282.89,277.563" style="stroke:#A80036;stroke-width:1.0;"/><!--MD5=[1cc56edb9a16c235bd3fdf74df9c6d44]
link ProductAFactory to Factory--><path codeLine="24" d="M344.96,94.613 C354.66,107.803 366.22,123.523 376.97,138.133 " fill="none" id="ProductAFactory-to-Factory" style="stroke:#A80036;stroke-width:1.0;"/><polygon fill="none" points="382.84,134.303,389.05,154.563,371.56,142.593,382.84,134.303" style="stroke:#A80036;stroke-width:1.0;"/><!--MD5=[2c1003c62beb8a4c5023e04139b005dd]
link ProductBFactory to Factory--><path codeLine="25" d="M477.29,94.613 C467.71,107.803 456.27,123.523 445.64,138.133 " fill="none" id="ProductBFactory-to-Factory" style="stroke:#A80036;stroke-width:1.0;"/><polygon fill="none" points="451.12,142.503,433.7,154.563,439.8,134.263,451.12,142.503" style="stroke:#A80036;stroke-width:1.0;"/><!--MD5=[5a7a351653a9a73e6c526a5b52cfbe86]
link ConcreteProductA to Product--><path codeLine="26" d="M114.64,217.613 C134.72,232.163 159.06,249.803 180.9,265.623 " fill="none" id="ConcreteProductA-to-Product" style="stroke:#A80036;stroke-width:1.0;stroke-dasharray:7.0,7.0;"/><polygon fill="none" points="185.28,260.153,197.37,277.563,177.07,271.493,185.28,260.153" style="stroke:#A80036;stroke-width:1.0;"/><!--MD5=[e15d394e05d089ad8b97c7a6d3cf7d3a]
link ConcreteProductB to Product--><path codeLine="27" d="M239.5,217.613 C239.5,229.653 239.5,243.813 239.5,257.303 " fill="none" id="ConcreteProductB-to-Product" style="stroke:#A80036;stroke-width:1.0;stroke-dasharray:7.0,7.0;"/><polygon fill="none" points="246.5,257.563,239.5,277.563,232.5,257.563,246.5,257.563" style="stroke:#A80036;stroke-width:1.0;"/><!--MD5=[76e31e45d240336884300b702812a648]
@startuml factorymethod
title 工厂方法模式

interface Product {
    +doSomething()
}
class ConcreteProductA {
    +doSomething()
}
class ConcreteProductB {
    +doSomething()
}

class Factory {
    +createProduct() Product
}
class ProductAFactory {
    +createProduct() Product
}
class ProductBFactory {
    +createProduct() Product
}

Factory ..> Product
ProductAFactory - -|> Factory
ProductBFactory - -|> Factory
ConcreteProductA ..|> Product
ConcreteProductB ..|> Product

@enduml

PlantUML version 1.2021.00(Sun Jan 10 18:25:05 CST 2021)
(GPL source distribution)
Java Runtime: Java(TM) SE Runtime Environment
JVM: Java HotSpot(TM) 64-Bit Server VM
Default Encoding: GBK
Language: zh
Country: CN
--></g></svg>